<?xml version="1.0" encoding="utf-8"?>
<svg xmlns="http://www.w3.org/2000/svg" xmlns:xlink="http://www.w3.org/1999/xlink" width="576" height="384" viewBox="0 0 2304 1536">
<defs>
  <clipPath id="clip170">
    <rect x="0" y="0" width="2304" height="1536"/>
  </clipPath>
</defs>
<path clip-path="url(#clip170)" d="
M0 1536 L2304 1536 L2304 0 L0 0  Z
  " fill="#ffffff" fill-rule="evenodd" fill-opacity="1"/>
<defs>
  <clipPath id="clip171">
    <rect x="460" y="0" width="1614" height="1536"/>
  </clipPath>
</defs>
<path clip-path="url(#clip170)" d="
M173.902 1423.09 L2256.76 1423.09 L2256.76 47.2441 L173.902 47.2441  Z
  " fill="#ffffff" fill-rule="evenodd" fill-opacity="1"/>
<defs>
  <clipPath id="clip172">
    <rect x="173" y="47" width="2084" height="1377"/>
  </clipPath>
</defs>
<polyline clip-path="url(#clip172)" style="stroke:#000000; stroke-width:2; stroke-opacity:0.1; fill:none" points="
  306.666,1423.09 306.666,47.2441 
  "/>
<polyline clip-path="url(#clip172)" style="stroke:#000000; stroke-width:2; stroke-opacity:0.1; fill:none" points="
  566.274,1423.09 566.274,47.2441 
  "/>
<polyline clip-path="url(#clip172)" style="stroke:#000000; stroke-width:2; stroke-opacity:0.1; fill:none" points="
  825.881,1423.09 825.881,47.2441 
  "/>
<polyline clip-path="url(#clip172)" style="stroke:#000000; stroke-width:2; stroke-opacity:0.1; fill:none" points="
  1085.49,1423.09 1085.49,47.2441 
  "/>
<polyline clip-path="url(#clip172)" style="stroke:#000000; stroke-width:2; stroke-opacity:0.1; fill:none" points="
  1345.1,1423.09 1345.1,47.2441 
  "/>
<polyline clip-path="url(#clip172)" style="stroke:#000000; stroke-width:2; stroke-opacity:0.1; fill:none" points="
  1604.7,1423.09 1604.7,47.2441 
  "/>
<polyline clip-path="url(#clip172)" style="stroke:#000000; stroke-width:2; stroke-opacity:0.1; fill:none" points="
  1864.31,1423.09 1864.31,47.2441 
  "/>
<polyline clip-path="url(#clip172)" style="stroke:#000000; stroke-width:2; stroke-opacity:0.1; fill:none" points="
  2123.92,1423.09 2123.92,47.2441 
  "/>
<polyline clip-path="url(#clip170)" style="stroke:#000000; stroke-width:4; stroke-opacity:1; fill:none" points="
  173.902,1423.09 2256.76,1423.09 
  "/>
<polyline clip-path="url(#clip170)" style="stroke:#000000; stroke-width:4; stroke-opacity:1; fill:none" points="
  306.666,1423.09 306.666,1406.58 
  "/>
<polyline clip-path="url(#clip170)" style="stroke:#000000; stroke-width:4; stroke-opacity:1; fill:none" points="
  566.274,1423.09 566.274,1406.58 
  "/>
<polyline clip-path="url(#clip170)" style="stroke:#000000; stroke-width:4; stroke-opacity:1; fill:none" points="
  825.881,1423.09 825.881,1406.58 
  "/>
<polyline clip-path="url(#clip170)" style="stroke:#000000; stroke-width:4; stroke-opacity:1; fill:none" points="
  1085.49,1423.09 1085.49,1406.58 
  "/>
<polyline clip-path="url(#clip170)" style="stroke:#000000; stroke-width:4; stroke-opacity:1; fill:none" points="
  1345.1,1423.09 1345.1,1406.58 
  "/>
<polyline clip-path="url(#clip170)" style="stroke:#000000; stroke-width:4; stroke-opacity:1; fill:none" points="
  1604.7,1423.09 1604.7,1406.58 
  "/>
<polyline clip-path="url(#clip170)" style="stroke:#000000; stroke-width:4; stroke-opacity:1; fill:none" points="
  1864.31,1423.09 1864.31,1406.58 
  "/>
<polyline clip-path="url(#clip170)" style="stroke:#000000; stroke-width:4; stroke-opacity:1; fill:none" points="
  2123.92,1423.09 2123.92,1406.58 
  "/>
<path clip-path="url(#clip170)" d="M 0 0 M260.636 1466.16 L290.312 1466.16 L290.312 1470.1 L260.636 1470.1 L260.636 1466.16 Z" fill="#000000" fill-rule="evenodd" fill-opacity="1" /><path clip-path="url(#clip170)" d="M 0 0 M305.381 1451.51 Q301.77 1451.51 299.941 1455.08 Q298.136 1458.62 298.136 1465.75 Q298.136 1472.85 299.941 1476.42 Q301.77 1479.96 305.381 1479.96 Q309.015 1479.96 310.821 1476.42 Q312.65 1472.85 312.65 1465.75 Q312.65 1458.62 310.821 1455.08 Q309.015 1451.51 305.381 1451.51 M305.381 1447.81 Q311.191 1447.81 314.247 1452.41 Q317.326 1457 317.326 1465.75 Q317.326 1474.47 314.247 1479.08 Q311.191 1483.66 305.381 1483.66 Q299.571 1483.66 296.492 1479.08 Q293.437 1474.47 293.437 1465.75 Q293.437 1457 296.492 1452.41 Q299.571 1447.81 305.381 1447.81 Z" fill="#000000" fill-rule="evenodd" fill-opacity="1" /><path clip-path="url(#clip170)" d="M 0 0 M322.395 1477.11 L327.279 1477.11 L327.279 1482.99 L322.395 1482.99 L322.395 1477.11 Z" fill="#000000" fill-rule="evenodd" fill-opacity="1" /><path clip-path="url(#clip170)" d="M 0 0 M336.376 1479.06 L352.696 1479.06 L352.696 1482.99 L330.751 1482.99 L330.751 1479.06 Q333.413 1476.3 337.997 1471.67 Q342.603 1467.02 343.784 1465.68 Q346.029 1463.15 346.909 1461.42 Q347.812 1459.66 347.812 1457.97 Q347.812 1455.21 345.867 1453.48 Q343.946 1451.74 340.844 1451.74 Q338.645 1451.74 336.191 1452.51 Q333.761 1453.27 330.983 1454.82 L330.983 1450.1 Q333.807 1448.96 336.261 1448.39 Q338.714 1447.81 340.751 1447.81 Q346.122 1447.81 349.316 1450.49 Q352.511 1453.18 352.511 1457.67 Q352.511 1459.8 351.7 1461.72 Q350.913 1463.62 348.807 1466.21 Q348.228 1466.88 345.126 1470.1 Q342.025 1473.29 336.376 1479.06 Z" fill="#000000" fill-rule="evenodd" fill-opacity="1" /><path clip-path="url(#clip170)" d="M 0 0 M547.79 1451.51 Q544.179 1451.51 542.35 1455.08 Q540.545 1458.62 540.545 1465.75 Q540.545 1472.85 542.35 1476.42 Q544.179 1479.96 547.79 1479.96 Q551.424 1479.96 553.23 1476.42 Q555.058 1472.85 555.058 1465.75 Q555.058 1458.62 553.23 1455.08 Q551.424 1451.51 547.79 1451.51 M547.79 1447.81 Q553.6 1447.81 556.656 1452.41 Q559.734 1457 559.734 1465.75 Q559.734 1474.47 556.656 1479.08 Q553.6 1483.66 547.79 1483.66 Q541.98 1483.66 538.901 1479.08 Q535.846 1474.47 535.846 1465.75 Q535.846 1457 538.901 1452.41 Q541.98 1447.81 547.79 1447.81 Z" fill="#000000" fill-rule="evenodd" fill-opacity="1" /><path clip-path="url(#clip170)" d="M 0 0 M564.804 1477.11 L569.688 1477.11 L569.688 1482.99 L564.804 1482.99 L564.804 1477.11 Z" fill="#000000" fill-rule="evenodd" fill-opacity="1" /><path clip-path="url(#clip170)" d="M 0 0 M584.757 1451.51 Q581.146 1451.51 579.317 1455.08 Q577.512 1458.62 577.512 1465.75 Q577.512 1472.85 579.317 1476.42 Q581.146 1479.96 584.757 1479.96 Q588.392 1479.96 590.197 1476.42 Q592.026 1472.85 592.026 1465.75 Q592.026 1458.62 590.197 1455.08 Q588.392 1451.51 584.757 1451.51 M584.757 1447.81 Q590.567 1447.81 593.623 1452.41 Q596.702 1457 596.702 1465.75 Q596.702 1474.47 593.623 1479.08 Q590.567 1483.66 584.757 1483.66 Q578.947 1483.66 575.868 1479.08 Q572.813 1474.47 572.813 1465.75 Q572.813 1457 575.868 1452.41 Q578.947 1447.81 584.757 1447.81 Z" fill="#000000" fill-rule="evenodd" fill-opacity="1" /><path clip-path="url(#clip170)" d="M 0 0 M808.196 1451.51 Q804.585 1451.51 802.756 1455.08 Q800.951 1458.62 800.951 1465.75 Q800.951 1472.85 802.756 1476.42 Q804.585 1479.96 808.196 1479.96 Q811.83 1479.96 813.636 1476.42 Q815.465 1472.85 815.465 1465.75 Q815.465 1458.62 813.636 1455.08 Q811.83 1451.51 808.196 1451.51 M808.196 1447.81 Q814.006 1447.81 817.062 1452.41 Q820.141 1457 820.141 1465.75 Q820.141 1474.47 817.062 1479.08 Q814.006 1483.66 808.196 1483.66 Q802.386 1483.66 799.307 1479.08 Q796.252 1474.47 796.252 1465.75 Q796.252 1457 799.307 1452.41 Q802.386 1447.81 808.196 1447.81 Z" fill="#000000" fill-rule="evenodd" fill-opacity="1" /><path clip-path="url(#clip170)" d="M 0 0 M825.21 1477.11 L830.094 1477.11 L830.094 1482.99 L825.21 1482.99 L825.21 1477.11 Z" fill="#000000" fill-rule="evenodd" fill-opacity="1" /><path clip-path="url(#clip170)" d="M 0 0 M839.191 1479.06 L855.511 1479.06 L855.511 1482.99 L833.566 1482.99 L833.566 1479.06 Q836.228 1476.3 840.812 1471.67 Q845.418 1467.02 846.599 1465.68 Q848.844 1463.15 849.724 1461.42 Q850.626 1459.66 850.626 1457.97 Q850.626 1455.21 848.682 1453.48 Q846.761 1451.74 843.659 1451.74 Q841.46 1451.74 839.006 1452.51 Q836.576 1453.27 833.798 1454.82 L833.798 1450.1 Q836.622 1448.96 839.076 1448.39 Q841.529 1447.81 843.566 1447.81 Q848.937 1447.81 852.131 1450.49 Q855.326 1453.18 855.326 1457.67 Q855.326 1459.8 854.515 1461.72 Q853.728 1463.62 851.622 1466.21 Q851.043 1466.88 847.941 1470.1 Q844.839 1473.29 839.191 1479.06 Z" fill="#000000" fill-rule="evenodd" fill-opacity="1" /><path clip-path="url(#clip170)" d="M 0 0 M1066.76 1451.51 Q1063.15 1451.51 1061.32 1455.08 Q1059.52 1458.62 1059.52 1465.75 Q1059.52 1472.85 1061.32 1476.42 Q1063.15 1479.96 1066.76 1479.96 Q1070.4 1479.96 1072.2 1476.42 Q1074.03 1472.85 1074.03 1465.75 Q1074.03 1458.62 1072.2 1455.08 Q1070.4 1451.51 1066.76 1451.51 M1066.76 1447.81 Q1072.57 1447.81 1075.63 1452.41 Q1078.71 1457 1078.71 1465.75 Q1078.71 1474.47 1075.63 1479.08 Q1072.57 1483.66 1066.76 1483.66 Q1060.95 1483.66 1057.87 1479.08 Q1054.82 1474.47 1054.82 1465.75 Q1054.82 1457 1057.87 1452.41 Q1060.95 1447.81 1066.76 1447.81 Z" fill="#000000" fill-rule="evenodd" fill-opacity="1" /><path clip-path="url(#clip170)" d="M 0 0 M1083.78 1477.11 L1088.66 1477.11 L1088.66 1482.99 L1083.78 1482.99 L1083.78 1477.11 Z" fill="#000000" fill-rule="evenodd" fill-opacity="1" /><path clip-path="url(#clip170)" d="M 0 0 M1106.58 1452.51 L1094.77 1470.95 L1106.58 1470.95 L1106.58 1452.51 M1105.35 1448.43 L1111.23 1448.43 L1111.23 1470.95 L1116.16 1470.95 L1116.16 1474.84 L1111.23 1474.84 L1111.23 1482.99 L1106.58 1482.99 L1106.58 1474.84 L1090.97 1474.84 L1090.97 1470.33 L1105.35 1448.43 Z" fill="#000000" fill-rule="evenodd" fill-opacity="1" /><path clip-path="url(#clip170)" d="M 0 0 M1326.53 1451.51 Q1322.92 1451.51 1321.09 1455.08 Q1319.29 1458.62 1319.29 1465.75 Q1319.29 1472.85 1321.09 1476.42 Q1322.92 1479.96 1326.53 1479.96 Q1330.17 1479.96 1331.97 1476.42 Q1333.8 1472.85 1333.8 1465.75 Q1333.8 1458.62 1331.97 1455.08 Q1330.17 1451.51 1326.53 1451.51 M1326.53 1447.81 Q1332.34 1447.81 1335.4 1452.41 Q1338.48 1457 1338.48 1465.75 Q1338.48 1474.47 1335.4 1479.08 Q1332.34 1483.66 1326.53 1483.66 Q1320.72 1483.66 1317.64 1479.08 Q1314.59 1474.47 1314.59 1465.75 Q1314.59 1457 1317.64 1452.41 Q1320.72 1447.81 1326.53 1447.81 Z" fill="#000000" fill-rule="evenodd" fill-opacity="1" /><path clip-path="url(#clip170)" d="M 0 0 M1343.55 1477.11 L1348.43 1477.11 L1348.43 1482.99 L1343.55 1482.99 L1343.55 1477.11 Z" fill="#000000" fill-rule="evenodd" fill-opacity="1" /><path clip-path="url(#clip170)" d="M 0 0 M1364.08 1463.85 Q1360.93 1463.85 1359.08 1466 Q1357.25 1468.15 1357.25 1471.9 Q1357.25 1475.63 1359.08 1477.81 Q1360.93 1479.96 1364.08 1479.96 Q1367.23 1479.96 1369.05 1477.81 Q1370.91 1475.63 1370.91 1471.9 Q1370.91 1468.15 1369.05 1466 Q1367.23 1463.85 1364.08 1463.85 M1373.36 1449.2 L1373.36 1453.45 Q1371.6 1452.62 1369.8 1452.18 Q1368.01 1451.74 1366.25 1451.74 Q1361.62 1451.74 1359.17 1454.87 Q1356.74 1457.99 1356.39 1464.31 Q1357.76 1462.3 1359.82 1461.23 Q1361.88 1460.14 1364.36 1460.14 Q1369.56 1460.14 1372.57 1463.32 Q1375.61 1466.46 1375.61 1471.9 Q1375.61 1477.23 1372.46 1480.45 Q1369.31 1483.66 1364.08 1483.66 Q1358.08 1483.66 1354.91 1479.08 Q1351.74 1474.47 1351.74 1465.75 Q1351.74 1457.55 1355.63 1452.69 Q1359.52 1447.81 1366.07 1447.81 Q1367.83 1447.81 1369.61 1448.15 Q1371.42 1448.5 1373.36 1449.2 Z" fill="#000000" fill-rule="evenodd" fill-opacity="1" /><path clip-path="url(#clip170)" d="M 0 0 M1586.27 1451.51 Q1582.66 1451.51 1580.83 1455.08 Q1579.02 1458.62 1579.02 1465.75 Q1579.02 1472.85 1580.83 1476.42 Q1582.66 1479.96 1586.27 1479.96 Q1589.9 1479.96 1591.71 1476.42 Q1593.54 1472.85 1593.54 1465.75 Q1593.54 1458.62 1591.71 1455.08 Q1589.9 1451.51 1586.27 1451.51 M1586.27 1447.81 Q1592.08 1447.81 1595.13 1452.41 Q1598.21 1457 1598.21 1465.75 Q1598.21 1474.47 1595.13 1479.08 Q1592.08 1483.66 1586.27 1483.66 Q1580.46 1483.66 1577.38 1479.08 Q1574.32 1474.47 1574.32 1465.75 Q1574.32 1457 1577.38 1452.41 Q1580.46 1447.81 1586.27 1447.81 Z" fill="#000000" fill-rule="evenodd" fill-opacity="1" /><path clip-path="url(#clip170)" d="M 0 0 M1603.28 1477.11 L1608.16 1477.11 L1608.16 1482.99 L1603.28 1482.99 L1603.28 1477.11 Z" fill="#000000" fill-rule="evenodd" fill-opacity="1" /><path clip-path="url(#clip170)" d="M 0 0 M1623.23 1466.58 Q1619.9 1466.58 1617.98 1468.36 Q1616.08 1470.14 1616.08 1473.27 Q1616.08 1476.39 1617.98 1478.18 Q1619.9 1479.96 1623.23 1479.96 Q1626.57 1479.96 1628.49 1478.18 Q1630.41 1476.37 1630.41 1473.27 Q1630.41 1470.14 1628.49 1468.36 Q1626.59 1466.58 1623.23 1466.58 M1618.56 1464.59 Q1615.55 1463.85 1613.86 1461.79 Q1612.19 1459.73 1612.19 1456.77 Q1612.19 1452.62 1615.13 1450.21 Q1618.1 1447.81 1623.23 1447.81 Q1628.4 1447.81 1631.34 1450.21 Q1634.28 1452.62 1634.28 1456.77 Q1634.28 1459.73 1632.59 1461.79 Q1630.92 1463.85 1627.93 1464.59 Q1631.31 1465.38 1633.19 1467.67 Q1635.09 1469.96 1635.09 1473.27 Q1635.09 1478.29 1632.01 1480.98 Q1628.95 1483.66 1623.23 1483.66 Q1617.52 1483.66 1614.44 1480.98 Q1611.38 1478.29 1611.38 1473.27 Q1611.38 1469.96 1613.28 1467.67 Q1615.18 1465.38 1618.56 1464.59 M1616.85 1457.2 Q1616.85 1459.89 1618.51 1461.39 Q1620.2 1462.9 1623.23 1462.9 Q1626.24 1462.9 1627.93 1461.39 Q1629.65 1459.89 1629.65 1457.2 Q1629.65 1454.52 1627.93 1453.02 Q1626.24 1451.51 1623.23 1451.51 Q1620.2 1451.51 1618.51 1453.02 Q1616.85 1454.52 1616.85 1457.2 Z" fill="#000000" fill-rule="evenodd" fill-opacity="1" /><path clip-path="url(#clip170)" d="M 0 0 M1836.21 1479.06 L1843.85 1479.06 L1843.85 1452.69 L1835.54 1454.36 L1835.54 1450.1 L1843.8 1448.43 L1848.48 1448.43 L1848.48 1479.06 L1856.12 1479.06 L1856.12 1482.99 L1836.21 1482.99 L1836.21 1479.06 Z" fill="#000000" fill-rule="evenodd" fill-opacity="1" /><path clip-path="url(#clip170)" d="M 0 0 M1861.19 1477.11 L1866.07 1477.11 L1866.07 1482.99 L1861.19 1482.99 L1861.19 1477.11 Z" fill="#000000" fill-rule="evenodd" fill-opacity="1" /><path clip-path="url(#clip170)" d="M 0 0 M1881.14 1451.51 Q1877.53 1451.51 1875.7 1455.08 Q1873.9 1458.62 1873.9 1465.75 Q1873.9 1472.85 1875.7 1476.42 Q1877.53 1479.96 1881.14 1479.96 Q1884.77 1479.96 1886.58 1476.42 Q1888.41 1472.85 1888.41 1465.75 Q1888.41 1458.62 1886.58 1455.08 Q1884.77 1451.51 1881.14 1451.51 M1881.14 1447.81 Q1886.95 1447.81 1890.01 1452.41 Q1893.08 1457 1893.08 1465.75 Q1893.08 1474.47 1890.01 1479.08 Q1886.95 1483.66 1881.14 1483.66 Q1875.33 1483.66 1872.25 1479.08 Q1869.2 1474.47 1869.2 1465.75 Q1869.2 1457 1872.25 1452.41 Q1875.33 1447.81 1881.14 1447.81 Z" fill="#000000" fill-rule="evenodd" fill-opacity="1" /><path clip-path="url(#clip170)" d="M 0 0 M2096.62 1479.06 L2104.26 1479.06 L2104.26 1452.69 L2095.95 1454.36 L2095.95 1450.1 L2104.21 1448.43 L2108.88 1448.43 L2108.88 1479.06 L2116.52 1479.06 L2116.52 1482.99 L2096.62 1482.99 L2096.62 1479.06 Z" fill="#000000" fill-rule="evenodd" fill-opacity="1" /><path clip-path="url(#clip170)" d="M 0 0 M2121.59 1477.11 L2126.48 1477.11 L2126.48 1482.99 L2121.59 1482.99 L2121.59 1477.11 Z" fill="#000000" fill-rule="evenodd" fill-opacity="1" /><path clip-path="url(#clip170)" d="M 0 0 M2135.57 1479.06 L2151.89 1479.06 L2151.89 1482.99 L2129.95 1482.99 L2129.95 1479.06 Q2132.61 1476.3 2137.19 1471.67 Q2141.8 1467.02 2142.98 1465.68 Q2145.23 1463.15 2146.11 1461.42 Q2147.01 1459.66 2147.01 1457.97 Q2147.01 1455.21 2145.07 1453.48 Q2143.14 1451.74 2140.04 1451.74 Q2137.84 1451.74 2135.39 1452.51 Q2132.96 1453.27 2130.18 1454.82 L2130.18 1450.1 Q2133.01 1448.96 2135.46 1448.39 Q2137.91 1447.81 2139.95 1447.81 Q2145.32 1447.81 2148.51 1450.49 Q2151.71 1453.18 2151.71 1457.67 Q2151.71 1459.8 2150.9 1461.72 Q2150.11 1463.62 2148.01 1466.21 Q2147.43 1466.88 2144.32 1470.1 Q2141.22 1473.29 2135.57 1479.06 Z" fill="#000000" fill-rule="evenodd" fill-opacity="1" /><polyline clip-path="url(#clip172)" style="stroke:#000000; stroke-width:2; stroke-opacity:0.1; fill:none" points="
  173.902,1384.22 2256.76,1384.22 
  "/>
<polyline clip-path="url(#clip172)" style="stroke:#000000; stroke-width:2; stroke-opacity:0.1; fill:none" points="
  173.902,1059.71 2256.76,1059.71 
  "/>
<polyline clip-path="url(#clip172)" style="stroke:#000000; stroke-width:2; stroke-opacity:0.1; fill:none" points="
  173.902,735.202 2256.76,735.202 
  "/>
<polyline clip-path="url(#clip172)" style="stroke:#000000; stroke-width:2; stroke-opacity:0.1; fill:none" points="
  173.902,410.693 2256.76,410.693 
  "/>
<polyline clip-path="url(#clip172)" style="stroke:#000000; stroke-width:2; stroke-opacity:0.1; fill:none" points="
  173.902,86.1831 2256.76,86.1831 
  "/>
<polyline clip-path="url(#clip170)" style="stroke:#000000; stroke-width:4; stroke-opacity:1; fill:none" points="
  173.902,1423.09 173.902,47.2441 
  "/>
<polyline clip-path="url(#clip170)" style="stroke:#000000; stroke-width:4; stroke-opacity:1; fill:none" points="
  173.902,1384.22 198.896,1384.22 
  "/>
<polyline clip-path="url(#clip170)" style="stroke:#000000; stroke-width:4; stroke-opacity:1; fill:none" points="
  173.902,1059.71 198.896,1059.71 
  "/>
<polyline clip-path="url(#clip170)" style="stroke:#000000; stroke-width:4; stroke-opacity:1; fill:none" points="
  173.902,735.202 198.896,735.202 
  "/>
<polyline clip-path="url(#clip170)" style="stroke:#000000; stroke-width:4; stroke-opacity:1; fill:none" points="
  173.902,410.693 198.896,410.693 
  "/>
<polyline clip-path="url(#clip170)" style="stroke:#000000; stroke-width:4; stroke-opacity:1; fill:none" points="
  173.902,86.1831 198.896,86.1831 
  "/>
<path clip-path="url(#clip170)" d="M 0 0 M63.4165 1370.02 Q59.8054 1370.02 57.9767 1373.58 Q56.1712 1377.13 56.1712 1384.26 Q56.1712 1391.36 57.9767 1394.93 Q59.8054 1398.47 63.4165 1398.47 Q67.0507 1398.47 68.8563 1394.93 Q70.685 1391.36 70.685 1384.26 Q70.685 1377.13 68.8563 1373.58 Q67.0507 1370.02 63.4165 1370.02 M63.4165 1366.32 Q69.2267 1366.32 72.2822 1370.92 Q75.3609 1375.51 75.3609 1384.26 Q75.3609 1392.98 72.2822 1397.59 Q69.2267 1402.17 63.4165 1402.17 Q57.6064 1402.17 54.5277 1397.59 Q51.4721 1392.98 51.4721 1384.26 Q51.4721 1375.51 54.5277 1370.92 Q57.6064 1366.32 63.4165 1366.32 Z" fill="#000000" fill-rule="evenodd" fill-opacity="1" /><path clip-path="url(#clip170)" d="M 0 0 M80.4303 1395.62 L85.3145 1395.62 L85.3145 1401.5 L80.4303 1401.5 L80.4303 1395.62 Z" fill="#000000" fill-rule="evenodd" fill-opacity="1" /><path clip-path="url(#clip170)" d="M 0 0 M100.384 1370.02 Q96.7728 1370.02 94.9441 1373.58 Q93.1386 1377.13 93.1386 1384.26 Q93.1386 1391.36 94.9441 1394.93 Q96.7728 1398.47 100.384 1398.47 Q104.018 1398.47 105.824 1394.93 Q107.652 1391.36 107.652 1384.26 Q107.652 1377.13 105.824 1373.58 Q104.018 1370.02 100.384 1370.02 M100.384 1366.32 Q106.194 1366.32 109.25 1370.92 Q112.328 1375.51 112.328 1384.26 Q112.328 1392.98 109.25 1397.59 Q106.194 1402.17 100.384 1402.17 Q94.5737 1402.17 91.4951 1397.59 Q88.4395 1392.98 88.4395 1384.26 Q88.4395 1375.51 91.4951 1370.92 Q94.5737 1366.32 100.384 1366.32 Z" fill="#000000" fill-rule="evenodd" fill-opacity="1" /><path clip-path="url(#clip170)" d="M 0 0 M127.398 1370.02 Q123.787 1370.02 121.958 1373.58 Q120.152 1377.13 120.152 1384.26 Q120.152 1391.36 121.958 1394.93 Q123.787 1398.47 127.398 1398.47 Q131.032 1398.47 132.837 1394.93 Q134.666 1391.36 134.666 1384.26 Q134.666 1377.13 132.837 1373.58 Q131.032 1370.02 127.398 1370.02 M127.398 1366.32 Q133.208 1366.32 136.263 1370.92 Q139.342 1375.51 139.342 1384.26 Q139.342 1392.98 136.263 1397.59 Q133.208 1402.17 127.398 1402.17 Q121.587 1402.17 118.509 1397.59 Q115.453 1392.98 115.453 1384.26 Q115.453 1375.51 118.509 1370.92 Q121.587 1366.32 127.398 1366.32 Z" fill="#000000" fill-rule="evenodd" fill-opacity="1" /><path clip-path="url(#clip170)" d="M 0 0 M66.0091 1045.51 Q62.398 1045.51 60.5693 1049.08 Q58.7638 1052.62 58.7638 1059.75 Q58.7638 1066.85 60.5693 1070.42 Q62.398 1073.96 66.0091 1073.96 Q69.6433 1073.96 71.4489 1070.42 Q73.2776 1066.85 73.2776 1059.75 Q73.2776 1052.62 71.4489 1049.08 Q69.6433 1045.51 66.0091 1045.51 M66.0091 1041.81 Q71.8192 1041.81 74.8748 1046.41 Q77.9535 1051 77.9535 1059.75 Q77.9535 1068.47 74.8748 1073.08 Q71.8192 1077.66 66.0091 1077.66 Q60.1989 1077.66 57.1202 1073.08 Q54.0647 1068.47 54.0647 1059.75 Q54.0647 1051 57.1202 1046.41 Q60.1989 1041.81 66.0091 1041.81 Z" fill="#000000" fill-rule="evenodd" fill-opacity="1" /><path clip-path="url(#clip170)" d="M 0 0 M83.0229 1071.11 L87.9071 1071.11 L87.9071 1076.99 L83.0229 1076.99 L83.0229 1071.11 Z" fill="#000000" fill-rule="evenodd" fill-opacity="1" /><path clip-path="url(#clip170)" d="M 0 0 M97.0043 1073.06 L113.324 1073.06 L113.324 1076.99 L91.3793 1076.99 L91.3793 1073.06 Q94.0413 1070.3 98.6247 1065.67 Q103.231 1061.02 104.412 1059.68 Q106.657 1057.15 107.537 1055.42 Q108.439 1053.66 108.439 1051.97 Q108.439 1049.21 106.495 1047.48 Q104.574 1045.74 101.472 1045.74 Q99.2728 1045.74 96.8191 1046.51 Q94.3886 1047.27 91.6108 1048.82 L91.6108 1044.1 Q94.4349 1042.96 96.8885 1042.39 Q99.3422 1041.81 101.379 1041.81 Q106.75 1041.81 109.944 1044.49 Q113.138 1047.18 113.138 1051.67 Q113.138 1053.8 112.328 1055.72 Q111.541 1057.62 109.435 1060.21 Q108.856 1060.88 105.754 1064.1 Q102.652 1067.29 97.0043 1073.06 Z" fill="#000000" fill-rule="evenodd" fill-opacity="1" /><path clip-path="url(#clip170)" d="M 0 0 M118.439 1042.43 L136.796 1042.43 L136.796 1046.37 L122.722 1046.37 L122.722 1054.84 Q123.74 1054.49 124.759 1054.33 Q125.777 1054.14 126.796 1054.14 Q132.583 1054.14 135.962 1057.32 Q139.342 1060.49 139.342 1065.9 Q139.342 1071.48 135.87 1074.58 Q132.398 1077.66 126.078 1077.66 Q123.902 1077.66 121.634 1077.29 Q119.388 1076.92 116.981 1076.18 L116.981 1071.48 Q119.064 1072.62 121.287 1073.17 Q123.509 1073.73 125.986 1073.73 Q129.99 1073.73 132.328 1071.62 Q134.666 1069.51 134.666 1065.9 Q134.666 1062.29 132.328 1060.19 Q129.99 1058.08 125.986 1058.08 Q124.111 1058.08 122.236 1058.5 Q120.384 1058.91 118.439 1059.79 L118.439 1042.43 Z" fill="#000000" fill-rule="evenodd" fill-opacity="1" /><path clip-path="url(#clip170)" d="M 0 0 M64.4119 721.001 Q60.8008 721.001 58.9721 724.566 Q57.1665 728.107 57.1665 735.237 Q57.1665 742.343 58.9721 745.908 Q60.8008 749.45 64.4119 749.45 Q68.0461 749.45 69.8517 745.908 Q71.6804 742.343 71.6804 735.237 Q71.6804 728.107 69.8517 724.566 Q68.0461 721.001 64.4119 721.001 M64.4119 717.297 Q70.222 717.297 73.2776 721.904 Q76.3563 726.487 76.3563 735.237 Q76.3563 743.964 73.2776 748.57 Q70.222 753.154 64.4119 753.154 Q58.6017 753.154 55.523 748.57 Q52.4675 743.964 52.4675 735.237 Q52.4675 726.487 55.523 721.904 Q58.6017 717.297 64.4119 717.297 Z" fill="#000000" fill-rule="evenodd" fill-opacity="1" /><path clip-path="url(#clip170)" d="M 0 0 M81.4257 746.603 L86.3099 746.603 L86.3099 752.482 L81.4257 752.482 L81.4257 746.603 Z" fill="#000000" fill-rule="evenodd" fill-opacity="1" /><path clip-path="url(#clip170)" d="M 0 0 M91.4256 717.922 L109.782 717.922 L109.782 721.857 L95.708 721.857 L95.708 730.33 Q96.7265 729.982 97.745 729.82 Q98.7635 729.635 99.7821 729.635 Q105.569 729.635 108.949 732.806 Q112.328 735.978 112.328 741.394 Q112.328 746.973 108.856 750.075 Q105.384 753.154 99.0645 753.154 Q96.8885 753.154 94.62 752.783 Q92.3747 752.413 89.9673 751.672 L89.9673 746.973 Q92.0506 748.107 94.2728 748.663 Q96.495 749.218 98.9719 749.218 Q102.976 749.218 105.314 747.112 Q107.652 745.005 107.652 741.394 Q107.652 737.783 105.314 735.677 Q102.976 733.57 98.9719 733.57 Q97.0969 733.57 95.2219 733.987 Q93.37 734.404 91.4256 735.283 L91.4256 717.922 Z" fill="#000000" fill-rule="evenodd" fill-opacity="1" /><path clip-path="url(#clip170)" d="M 0 0 M127.398 721.001 Q123.787 721.001 121.958 724.566 Q120.152 728.107 120.152 735.237 Q120.152 742.343 121.958 745.908 Q123.787 749.45 127.398 749.45 Q131.032 749.45 132.837 745.908 Q134.666 742.343 134.666 735.237 Q134.666 728.107 132.837 724.566 Q131.032 721.001 127.398 721.001 M127.398 717.297 Q133.208 717.297 136.263 721.904 Q139.342 726.487 139.342 735.237 Q139.342 743.964 136.263 748.57 Q133.208 753.154 127.398 753.154 Q121.587 753.154 118.509 748.57 Q115.453 743.964 115.453 735.237 Q115.453 726.487 118.509 721.904 Q121.587 717.297 127.398 717.297 Z" fill="#000000" fill-rule="evenodd" fill-opacity="1" /><path clip-path="url(#clip170)" d="M 0 0 M65.3146 396.491 Q61.7036 396.491 59.8749 400.056 Q58.0693 403.598 58.0693 410.727 Q58.0693 417.834 59.8749 421.399 Q61.7036 424.94 65.3146 424.94 Q68.9489 424.94 70.7544 421.399 Q72.5831 417.834 72.5831 410.727 Q72.5831 403.598 70.7544 400.056 Q68.9489 396.491 65.3146 396.491 M65.3146 392.788 Q71.1248 392.788 74.1803 397.394 Q77.259 401.977 77.259 410.727 Q77.259 419.454 74.1803 424.061 Q71.1248 428.644 65.3146 428.644 Q59.5045 428.644 56.4258 424.061 Q53.3703 419.454 53.3703 410.727 Q53.3703 401.977 56.4258 397.394 Q59.5045 392.788 65.3146 392.788 Z" fill="#000000" fill-rule="evenodd" fill-opacity="1" /><path clip-path="url(#clip170)" d="M 0 0 M82.3284 422.093 L87.2127 422.093 L87.2127 427.973 L82.3284 427.973 L82.3284 422.093 Z" fill="#000000" fill-rule="evenodd" fill-opacity="1" /><path clip-path="url(#clip170)" d="M 0 0 M91.1015 393.413 L113.324 393.413 L113.324 395.403 L100.777 427.973 L95.8932 427.973 L107.699 397.348 L91.1015 397.348 L91.1015 393.413 Z" fill="#000000" fill-rule="evenodd" fill-opacity="1" /><path clip-path="url(#clip170)" d="M 0 0 M118.439 393.413 L136.796 393.413 L136.796 397.348 L122.722 397.348 L122.722 405.82 Q123.74 405.473 124.759 405.311 Q125.777 405.126 126.796 405.126 Q132.583 405.126 135.962 408.297 Q139.342 411.468 139.342 416.885 Q139.342 422.463 135.87 425.565 Q132.398 428.644 126.078 428.644 Q123.902 428.644 121.634 428.274 Q119.388 427.903 116.981 427.162 L116.981 422.463 Q119.064 423.598 121.287 424.153 Q123.509 424.709 125.986 424.709 Q129.99 424.709 132.328 422.602 Q134.666 420.496 134.666 416.885 Q134.666 413.274 132.328 411.167 Q129.99 409.061 125.986 409.061 Q124.111 409.061 122.236 409.477 Q120.384 409.894 118.439 410.774 L118.439 393.413 Z" fill="#000000" fill-rule="evenodd" fill-opacity="1" /><path clip-path="url(#clip170)" d="M 0 0 M55.4536 99.5279 L63.0924 99.5279 L63.0924 73.1623 L54.7823 74.829 L54.7823 70.5697 L63.0461 68.9031 L67.722 68.9031 L67.722 99.5279 L75.3609 99.5279 L75.3609 103.463 L55.4536 103.463 L55.4536 99.5279 Z" fill="#000000" fill-rule="evenodd" fill-opacity="1" /><path clip-path="url(#clip170)" d="M 0 0 M80.4303 97.5835 L85.3145 97.5835 L85.3145 103.463 L80.4303 103.463 L80.4303 97.5835 Z" fill="#000000" fill-rule="evenodd" fill-opacity="1" /><path clip-path="url(#clip170)" d="M 0 0 M100.384 71.9818 Q96.7728 71.9818 94.9441 75.5466 Q93.1386 79.0882 93.1386 86.2178 Q93.1386 93.3242 94.9441 96.889 Q96.7728 100.431 100.384 100.431 Q104.018 100.431 105.824 96.889 Q107.652 93.3242 107.652 86.2178 Q107.652 79.0882 105.824 75.5466 Q104.018 71.9818 100.384 71.9818 M100.384 68.2781 Q106.194 68.2781 109.25 72.8845 Q112.328 77.4678 112.328 86.2178 Q112.328 94.9446 109.25 99.5511 Q106.194 104.134 100.384 104.134 Q94.5737 104.134 91.4951 99.5511 Q88.4395 94.9446 88.4395 86.2178 Q88.4395 77.4678 91.4951 72.8845 Q94.5737 68.2781 100.384 68.2781 Z" fill="#000000" fill-rule="evenodd" fill-opacity="1" /><path clip-path="url(#clip170)" d="M 0 0 M127.398 71.9818 Q123.787 71.9818 121.958 75.5466 Q120.152 79.0882 120.152 86.2178 Q120.152 93.3242 121.958 96.889 Q123.787 100.431 127.398 100.431 Q131.032 100.431 132.837 96.889 Q134.666 93.3242 134.666 86.2178 Q134.666 79.0882 132.837 75.5466 Q131.032 71.9818 127.398 71.9818 M127.398 68.2781 Q133.208 68.2781 136.263 72.8845 Q139.342 77.4678 139.342 86.2178 Q139.342 94.9446 136.263 99.5511 Q133.208 104.134 127.398 104.134 Q121.587 104.134 118.509 99.5511 Q115.453 94.9446 115.453 86.2178 Q115.453 77.4678 118.509 72.8845 Q121.587 68.2781 127.398 68.2781 Z" fill="#000000" fill-rule="evenodd" fill-opacity="1" /><polyline clip-path="url(#clip172)" style="stroke:#009af9; stroke-width:4; stroke-opacity:1; fill:none" points="
  566.346,86.1831 566.926,86.1832 568.085,86.1843 569.824,86.1879 572.143,86.1963 575.041,86.2127 578.518,86.2408 582.573,86.2854 587.206,86.3519 592.417,86.4464 
  598.205,86.5759 604.569,86.7481 611.507,86.9714 619.019,87.2551 627.102,87.6091 635.755,88.044 644.975,88.5711 654.76,89.2026 665.106,89.9511 676.011,90.83 
  687.469,91.8534 699.477,93.0358 712.029,94.3923 725.118,95.9388 738.738,97.6914 752.883,99.6668 767.542,101.882 782.708,104.354 798.37,107.102 814.517,110.142 
  831.137,113.493 848.216,117.173 865.742,121.2 883.697,125.593 902.066,130.369 920.832,135.545 939.974,141.14 959.474,147.17 979.309,153.65 999.458,160.598 
  1019.9,168.027 1040.6,175.951 1061.54,184.383 1082.7,193.335 1104.04,202.817 1125.53,212.839 1147.15,223.408 1168.86,234.53 1190.64,246.209 1212.45,258.449 
  1234.26,271.251 1256.03,284.613 1277.74,298.533 1299.35,313.005 1320.83,328.024 1342.14,343.58 1363.26,359.663 1384.15,376.26 1404.78,393.356 1425.12,410.934 
  1445.14,428.977 1464.82,447.462 1484.13,466.37 1503.03,485.675 1521.52,505.352 1539.56,525.376 1557.14,545.717 1574.23,566.348 1590.83,587.237 1606.91,608.354 
  1622.47,629.668 1637.49,651.146 1651.96,672.756 1665.88,694.465 1679.24,716.239 1692.05,738.047 1704.29,759.856 1715.97,781.633 1727.09,803.347 1737.66,824.966 
  1747.68,846.459 1757.16,867.798 1766.11,888.952 1774.54,909.895 1782.47,930.598 1789.9,951.037 1796.84,971.186 1803.33,991.021 1809.35,1010.52 1814.95,1029.66 
  1820.13,1048.43 1824.9,1066.8 1829.29,1084.75 1833.32,1102.28 1837,1119.36 1840.35,1135.98 1843.39,1152.13 1846.14,1167.79 1848.61,1182.95 1850.83,1197.61 
  1852.8,1211.76 1854.56,1225.38 1856.1,1238.47 1857.46,1251.02 1858.64,1263.03 1859.66,1274.48 1860.54,1285.39 1861.29,1295.74 1861.92,1305.52 1862.45,1314.74 
  1862.89,1323.39 1863.24,1331.48 1863.52,1338.99 1863.75,1345.93 1863.92,1352.29 1864.05,1358.08 1864.14,1363.29 1864.21,1367.92 1864.25,1371.98 1864.28,1375.45 
  1864.3,1378.35 1864.31,1380.67 1864.31,1382.41 1864.31,1383.57 1864.31,1384.15 
  "/>
<polyline clip-path="url(#clip172)" style="stroke:#009af9; stroke-width:4; stroke-opacity:1; fill:none" points="
  1881.58,1349.58 1864.31,1384.15 1847.02,1349.59 
  "/>
<polyline clip-path="url(#clip172)" style="stroke:#009af9; stroke-width:4; stroke-opacity:1; fill:none" points="
  1864.31,1384.15 1864.31,1383.57 
  "/>
</svg>
