<?xml version="1.0" encoding="utf-8"?>
<svg xmlns="http://www.w3.org/2000/svg" xmlns:xlink="http://www.w3.org/1999/xlink" width="576" height="384" viewBox="0 0 2304 1536">
<defs>
  <clipPath id="clip210">
    <rect x="0" y="0" width="2304" height="1536"/>
  </clipPath>
</defs>
<path clip-path="url(#clip210)" d="
M0 1536 L2304 1536 L2304 0 L0 0  Z
  " fill="#ffffff" fill-rule="evenodd" fill-opacity="1"/>
<defs>
  <clipPath id="clip211">
    <rect x="460" y="0" width="1614" height="1536"/>
  </clipPath>
</defs>
<path clip-path="url(#clip210)" d="
M173.902 1423.09 L2256.76 1423.09 L2256.76 47.2441 L173.902 47.2441  Z
  " fill="#ffffff" fill-rule="evenodd" fill-opacity="1"/>
<defs>
  <clipPath id="clip212">
    <rect x="173" y="47" width="2084" height="1377"/>
  </clipPath>
</defs>
<polyline clip-path="url(#clip212)" style="stroke:#000000; stroke-width:2; stroke-opacity:0.1; fill:none" points="
  306.753,1423.09 306.753,47.2441 
  "/>
<polyline clip-path="url(#clip212)" style="stroke:#000000; stroke-width:2; stroke-opacity:0.1; fill:none" points="
  566.346,1423.09 566.346,47.2441 
  "/>
<polyline clip-path="url(#clip212)" style="stroke:#000000; stroke-width:2; stroke-opacity:0.1; fill:none" points="
  825.939,1423.09 825.939,47.2441 
  "/>
<polyline clip-path="url(#clip212)" style="stroke:#000000; stroke-width:2; stroke-opacity:0.1; fill:none" points="
  1085.53,1423.09 1085.53,47.2441 
  "/>
<polyline clip-path="url(#clip212)" style="stroke:#000000; stroke-width:2; stroke-opacity:0.1; fill:none" points="
  1345.13,1423.09 1345.13,47.2441 
  "/>
<polyline clip-path="url(#clip212)" style="stroke:#000000; stroke-width:2; stroke-opacity:0.1; fill:none" points="
  1604.72,1423.09 1604.72,47.2441 
  "/>
<polyline clip-path="url(#clip212)" style="stroke:#000000; stroke-width:2; stroke-opacity:0.1; fill:none" points="
  1864.31,1423.09 1864.31,47.2441 
  "/>
<polyline clip-path="url(#clip212)" style="stroke:#000000; stroke-width:2; stroke-opacity:0.1; fill:none" points="
  2123.91,1423.09 2123.91,47.2441 
  "/>
<polyline clip-path="url(#clip210)" style="stroke:#000000; stroke-width:4; stroke-opacity:1; fill:none" points="
  173.902,1423.09 2256.76,1423.09 
  "/>
<polyline clip-path="url(#clip210)" style="stroke:#000000; stroke-width:4; stroke-opacity:1; fill:none" points="
  306.753,1423.09 306.753,1406.58 
  "/>
<polyline clip-path="url(#clip210)" style="stroke:#000000; stroke-width:4; stroke-opacity:1; fill:none" points="
  566.346,1423.09 566.346,1406.58 
  "/>
<polyline clip-path="url(#clip210)" style="stroke:#000000; stroke-width:4; stroke-opacity:1; fill:none" points="
  825.939,1423.09 825.939,1406.58 
  "/>
<polyline clip-path="url(#clip210)" style="stroke:#000000; stroke-width:4; stroke-opacity:1; fill:none" points="
  1085.53,1423.09 1085.53,1406.58 
  "/>
<polyline clip-path="url(#clip210)" style="stroke:#000000; stroke-width:4; stroke-opacity:1; fill:none" points="
  1345.13,1423.09 1345.13,1406.58 
  "/>
<polyline clip-path="url(#clip210)" style="stroke:#000000; stroke-width:4; stroke-opacity:1; fill:none" points="
  1604.72,1423.09 1604.72,1406.58 
  "/>
<polyline clip-path="url(#clip210)" style="stroke:#000000; stroke-width:4; stroke-opacity:1; fill:none" points="
  1864.31,1423.09 1864.31,1406.58 
  "/>
<polyline clip-path="url(#clip210)" style="stroke:#000000; stroke-width:4; stroke-opacity:1; fill:none" points="
  2123.91,1423.09 2123.91,1406.58 
  "/>
<path clip-path="url(#clip210)" d="M 0 0 M260.723 1466.16 L290.399 1466.16 L290.399 1470.1 L260.723 1470.1 L260.723 1466.16 Z" fill="#000000" fill-rule="evenodd" fill-opacity="1" /><path clip-path="url(#clip210)" d="M 0 0 M305.468 1451.51 Q301.857 1451.51 300.028 1455.08 Q298.223 1458.62 298.223 1465.75 Q298.223 1472.85 300.028 1476.42 Q301.857 1479.96 305.468 1479.96 Q309.102 1479.96 310.908 1476.42 Q312.737 1472.85 312.737 1465.75 Q312.737 1458.62 310.908 1455.08 Q309.102 1451.51 305.468 1451.51 M305.468 1447.81 Q311.278 1447.81 314.334 1452.41 Q317.413 1457 317.413 1465.75 Q317.413 1474.47 314.334 1479.08 Q311.278 1483.66 305.468 1483.66 Q299.658 1483.66 296.579 1479.08 Q293.524 1474.47 293.524 1465.75 Q293.524 1457 296.579 1452.41 Q299.658 1447.81 305.468 1447.81 Z" fill="#000000" fill-rule="evenodd" fill-opacity="1" /><path clip-path="url(#clip210)" d="M 0 0 M322.482 1477.11 L327.366 1477.11 L327.366 1482.99 L322.482 1482.99 L322.482 1477.11 Z" fill="#000000" fill-rule="evenodd" fill-opacity="1" /><path clip-path="url(#clip210)" d="M 0 0 M336.463 1479.06 L352.783 1479.06 L352.783 1482.99 L330.838 1482.99 L330.838 1479.06 Q333.5 1476.3 338.084 1471.67 Q342.69 1467.02 343.871 1465.68 Q346.116 1463.15 346.996 1461.42 Q347.898 1459.66 347.898 1457.97 Q347.898 1455.21 345.954 1453.48 Q344.033 1451.74 340.931 1451.74 Q338.732 1451.74 336.278 1452.51 Q333.848 1453.27 331.07 1454.82 L331.07 1450.1 Q333.894 1448.96 336.348 1448.39 Q338.801 1447.81 340.838 1447.81 Q346.209 1447.81 349.403 1450.49 Q352.598 1453.18 352.598 1457.67 Q352.598 1459.8 351.787 1461.72 Q351 1463.62 348.894 1466.21 Q348.315 1466.88 345.213 1470.1 Q342.111 1473.29 336.463 1479.06 Z" fill="#000000" fill-rule="evenodd" fill-opacity="1" /><path clip-path="url(#clip210)" d="M 0 0 M547.862 1451.51 Q544.251 1451.51 542.423 1455.08 Q540.617 1458.62 540.617 1465.75 Q540.617 1472.85 542.423 1476.42 Q544.251 1479.96 547.862 1479.96 Q551.497 1479.96 553.302 1476.42 Q555.131 1472.85 555.131 1465.75 Q555.131 1458.62 553.302 1455.08 Q551.497 1451.51 547.862 1451.51 M547.862 1447.81 Q553.673 1447.81 556.728 1452.41 Q559.807 1457 559.807 1465.75 Q559.807 1474.47 556.728 1479.08 Q553.673 1483.66 547.862 1483.66 Q542.052 1483.66 538.974 1479.08 Q535.918 1474.47 535.918 1465.75 Q535.918 1457 538.974 1452.41 Q542.052 1447.81 547.862 1447.81 Z" fill="#000000" fill-rule="evenodd" fill-opacity="1" /><path clip-path="url(#clip210)" d="M 0 0 M564.876 1477.11 L569.76 1477.11 L569.76 1482.99 L564.876 1482.99 L564.876 1477.11 Z" fill="#000000" fill-rule="evenodd" fill-opacity="1" /><path clip-path="url(#clip210)" d="M 0 0 M584.83 1451.51 Q581.219 1451.51 579.39 1455.08 Q577.584 1458.62 577.584 1465.75 Q577.584 1472.85 579.39 1476.42 Q581.219 1479.96 584.83 1479.96 Q588.464 1479.96 590.27 1476.42 Q592.098 1472.85 592.098 1465.75 Q592.098 1458.62 590.27 1455.08 Q588.464 1451.51 584.83 1451.51 M584.83 1447.81 Q590.64 1447.81 593.695 1452.41 Q596.774 1457 596.774 1465.75 Q596.774 1474.47 593.695 1479.08 Q590.64 1483.66 584.83 1483.66 Q579.02 1483.66 575.941 1479.08 Q572.885 1474.47 572.885 1465.75 Q572.885 1457 575.941 1452.41 Q579.02 1447.81 584.83 1447.81 Z" fill="#000000" fill-rule="evenodd" fill-opacity="1" /><path clip-path="url(#clip210)" d="M 0 0 M808.254 1451.51 Q804.643 1451.51 802.814 1455.08 Q801.009 1458.62 801.009 1465.75 Q801.009 1472.85 802.814 1476.42 Q804.643 1479.96 808.254 1479.96 Q811.888 1479.96 813.694 1476.42 Q815.523 1472.85 815.523 1465.75 Q815.523 1458.62 813.694 1455.08 Q811.888 1451.51 808.254 1451.51 M808.254 1447.81 Q814.064 1447.81 817.12 1452.41 Q820.199 1457 820.199 1465.75 Q820.199 1474.47 817.12 1479.08 Q814.064 1483.66 808.254 1483.66 Q802.444 1483.66 799.365 1479.08 Q796.31 1474.47 796.31 1465.75 Q796.31 1457 799.365 1452.41 Q802.444 1447.81 808.254 1447.81 Z" fill="#000000" fill-rule="evenodd" fill-opacity="1" /><path clip-path="url(#clip210)" d="M 0 0 M825.268 1477.11 L830.152 1477.11 L830.152 1482.99 L825.268 1482.99 L825.268 1477.11 Z" fill="#000000" fill-rule="evenodd" fill-opacity="1" /><path clip-path="url(#clip210)" d="M 0 0 M839.249 1479.06 L855.569 1479.06 L855.569 1482.99 L833.624 1482.99 L833.624 1479.06 Q836.286 1476.3 840.87 1471.67 Q845.476 1467.02 846.657 1465.68 Q848.902 1463.15 849.782 1461.42 Q850.684 1459.66 850.684 1457.97 Q850.684 1455.21 848.74 1453.48 Q846.819 1451.74 843.717 1451.74 Q841.518 1451.74 839.064 1452.51 Q836.634 1453.27 833.856 1454.82 L833.856 1450.1 Q836.68 1448.96 839.134 1448.39 Q841.587 1447.81 843.624 1447.81 Q848.995 1447.81 852.189 1450.49 Q855.384 1453.18 855.384 1457.67 Q855.384 1459.8 854.573 1461.72 Q853.786 1463.62 851.68 1466.21 Q851.101 1466.88 847.999 1470.1 Q844.897 1473.29 839.249 1479.06 Z" fill="#000000" fill-rule="evenodd" fill-opacity="1" /><path clip-path="url(#clip210)" d="M 0 0 M1066.81 1451.51 Q1063.19 1451.51 1061.37 1455.08 Q1059.56 1458.62 1059.56 1465.75 Q1059.56 1472.85 1061.37 1476.42 Q1063.19 1479.96 1066.81 1479.96 Q1070.44 1479.96 1072.25 1476.42 Q1074.07 1472.85 1074.07 1465.75 Q1074.07 1458.62 1072.25 1455.08 Q1070.44 1451.51 1066.81 1451.51 M1066.81 1447.81 Q1072.62 1447.81 1075.67 1452.41 Q1078.75 1457 1078.75 1465.75 Q1078.75 1474.47 1075.67 1479.08 Q1072.62 1483.66 1066.81 1483.66 Q1061 1483.66 1057.92 1479.08 Q1054.86 1474.47 1054.86 1465.75 Q1054.86 1457 1057.92 1452.41 Q1061 1447.81 1066.81 1447.81 Z" fill="#000000" fill-rule="evenodd" fill-opacity="1" /><path clip-path="url(#clip210)" d="M 0 0 M1083.82 1477.11 L1088.7 1477.11 L1088.7 1482.99 L1083.82 1482.99 L1083.82 1477.11 Z" fill="#000000" fill-rule="evenodd" fill-opacity="1" /><path clip-path="url(#clip210)" d="M 0 0 M1106.62 1452.51 L1094.81 1470.95 L1106.62 1470.95 L1106.62 1452.51 M1105.39 1448.43 L1111.27 1448.43 L1111.27 1470.95 L1116.2 1470.95 L1116.2 1474.84 L1111.27 1474.84 L1111.27 1482.99 L1106.62 1482.99 L1106.62 1474.84 L1091.02 1474.84 L1091.02 1470.33 L1105.39 1448.43 Z" fill="#000000" fill-rule="evenodd" fill-opacity="1" /><path clip-path="url(#clip210)" d="M 0 0 M1326.56 1451.51 Q1322.95 1451.51 1321.12 1455.08 Q1319.32 1458.62 1319.32 1465.75 Q1319.32 1472.85 1321.12 1476.42 Q1322.95 1479.96 1326.56 1479.96 Q1330.2 1479.96 1332 1476.42 Q1333.83 1472.85 1333.83 1465.75 Q1333.83 1458.62 1332 1455.08 Q1330.2 1451.51 1326.56 1451.51 M1326.56 1447.81 Q1332.37 1447.81 1335.43 1452.41 Q1338.51 1457 1338.51 1465.75 Q1338.51 1474.47 1335.43 1479.08 Q1332.37 1483.66 1326.56 1483.66 Q1320.75 1483.66 1317.67 1479.08 Q1314.62 1474.47 1314.62 1465.75 Q1314.62 1457 1317.67 1452.41 Q1320.75 1447.81 1326.56 1447.81 Z" fill="#000000" fill-rule="evenodd" fill-opacity="1" /><path clip-path="url(#clip210)" d="M 0 0 M1343.57 1477.11 L1348.46 1477.11 L1348.46 1482.99 L1343.57 1482.99 L1343.57 1477.11 Z" fill="#000000" fill-rule="evenodd" fill-opacity="1" /><path clip-path="url(#clip210)" d="M 0 0 M1364.11 1463.85 Q1360.96 1463.85 1359.11 1466 Q1357.28 1468.15 1357.28 1471.9 Q1357.28 1475.63 1359.11 1477.81 Q1360.96 1479.96 1364.11 1479.96 Q1367.26 1479.96 1369.08 1477.81 Q1370.94 1475.63 1370.94 1471.9 Q1370.94 1468.15 1369.08 1466 Q1367.26 1463.85 1364.11 1463.85 M1373.39 1449.2 L1373.39 1453.45 Q1371.63 1452.62 1369.82 1452.18 Q1368.04 1451.74 1366.28 1451.74 Q1361.65 1451.74 1359.2 1454.87 Q1356.77 1457.99 1356.42 1464.31 Q1357.79 1462.3 1359.85 1461.23 Q1361.91 1460.14 1364.38 1460.14 Q1369.59 1460.14 1372.6 1463.32 Q1375.63 1466.46 1375.63 1471.9 Q1375.63 1477.23 1372.49 1480.45 Q1369.34 1483.66 1364.11 1483.66 Q1358.11 1483.66 1354.94 1479.08 Q1351.77 1474.47 1351.77 1465.75 Q1351.77 1457.55 1355.66 1452.69 Q1359.55 1447.81 1366.1 1447.81 Q1367.86 1447.81 1369.64 1448.15 Q1371.44 1448.5 1373.39 1449.2 Z" fill="#000000" fill-rule="evenodd" fill-opacity="1" /><path clip-path="url(#clip210)" d="M 0 0 M1586.28 1451.51 Q1582.67 1451.51 1580.84 1455.08 Q1579.04 1458.62 1579.04 1465.75 Q1579.04 1472.85 1580.84 1476.42 Q1582.67 1479.96 1586.28 1479.96 Q1589.92 1479.96 1591.72 1476.42 Q1593.55 1472.85 1593.55 1465.75 Q1593.55 1458.62 1591.72 1455.08 Q1589.92 1451.51 1586.28 1451.51 M1586.28 1447.81 Q1592.09 1447.81 1595.15 1452.41 Q1598.23 1457 1598.23 1465.75 Q1598.23 1474.47 1595.15 1479.08 Q1592.09 1483.66 1586.28 1483.66 Q1580.47 1483.66 1577.39 1479.08 Q1574.34 1474.47 1574.34 1465.75 Q1574.34 1457 1577.39 1452.41 Q1580.47 1447.81 1586.28 1447.81 Z" fill="#000000" fill-rule="evenodd" fill-opacity="1" /><path clip-path="url(#clip210)" d="M 0 0 M1603.3 1477.11 L1608.18 1477.11 L1608.18 1482.99 L1603.3 1482.99 L1603.3 1477.11 Z" fill="#000000" fill-rule="evenodd" fill-opacity="1" /><path clip-path="url(#clip210)" d="M 0 0 M1623.25 1466.58 Q1619.92 1466.58 1617.99 1468.36 Q1616.1 1470.14 1616.1 1473.27 Q1616.1 1476.39 1617.99 1478.18 Q1619.92 1479.96 1623.25 1479.96 Q1626.58 1479.96 1628.5 1478.18 Q1630.42 1476.37 1630.42 1473.27 Q1630.42 1470.14 1628.5 1468.36 Q1626.61 1466.58 1623.25 1466.58 M1618.57 1464.59 Q1615.56 1463.85 1613.87 1461.79 Q1612.21 1459.73 1612.21 1456.77 Q1612.21 1452.62 1615.15 1450.21 Q1618.11 1447.81 1623.25 1447.81 Q1628.41 1447.81 1631.35 1450.21 Q1634.29 1452.62 1634.29 1456.77 Q1634.29 1459.73 1632.6 1461.79 Q1630.93 1463.85 1627.95 1464.59 Q1631.33 1465.38 1633.2 1467.67 Q1635.1 1469.96 1635.1 1473.27 Q1635.1 1478.29 1632.02 1480.98 Q1628.97 1483.66 1623.25 1483.66 Q1617.53 1483.66 1614.45 1480.98 Q1611.4 1478.29 1611.4 1473.27 Q1611.4 1469.96 1613.3 1467.67 Q1615.19 1465.38 1618.57 1464.59 M1616.86 1457.2 Q1616.86 1459.89 1618.53 1461.39 Q1620.22 1462.9 1623.25 1462.9 Q1626.26 1462.9 1627.95 1461.39 Q1629.66 1459.89 1629.66 1457.2 Q1629.66 1454.52 1627.95 1453.02 Q1626.26 1451.51 1623.25 1451.51 Q1620.22 1451.51 1618.53 1453.02 Q1616.86 1454.52 1616.86 1457.2 Z" fill="#000000" fill-rule="evenodd" fill-opacity="1" /><path clip-path="url(#clip210)" d="M 0 0 M1836.21 1479.06 L1843.85 1479.06 L1843.85 1452.69 L1835.54 1454.36 L1835.54 1450.1 L1843.8 1448.43 L1848.48 1448.43 L1848.48 1479.06 L1856.12 1479.06 L1856.12 1482.99 L1836.21 1482.99 L1836.21 1479.06 Z" fill="#000000" fill-rule="evenodd" fill-opacity="1" /><path clip-path="url(#clip210)" d="M 0 0 M1861.19 1477.11 L1866.07 1477.11 L1866.07 1482.99 L1861.19 1482.99 L1861.19 1477.11 Z" fill="#000000" fill-rule="evenodd" fill-opacity="1" /><path clip-path="url(#clip210)" d="M 0 0 M1881.14 1451.51 Q1877.53 1451.51 1875.7 1455.08 Q1873.9 1458.62 1873.9 1465.75 Q1873.9 1472.85 1875.7 1476.42 Q1877.53 1479.96 1881.14 1479.96 Q1884.77 1479.96 1886.58 1476.42 Q1888.41 1472.85 1888.41 1465.75 Q1888.41 1458.62 1886.58 1455.08 Q1884.77 1451.51 1881.14 1451.51 M1881.14 1447.81 Q1886.95 1447.81 1890.01 1452.41 Q1893.08 1457 1893.08 1465.75 Q1893.08 1474.47 1890.01 1479.08 Q1886.95 1483.66 1881.14 1483.66 Q1875.33 1483.66 1872.25 1479.08 Q1869.2 1474.47 1869.2 1465.75 Q1869.2 1457 1872.25 1452.41 Q1875.33 1447.81 1881.14 1447.81 Z" fill="#000000" fill-rule="evenodd" fill-opacity="1" /><path clip-path="url(#clip210)" d="M 0 0 M2096.6 1479.06 L2104.24 1479.06 L2104.24 1452.69 L2095.93 1454.36 L2095.93 1450.1 L2104.19 1448.43 L2108.87 1448.43 L2108.87 1479.06 L2116.51 1479.06 L2116.51 1482.99 L2096.6 1482.99 L2096.6 1479.06 Z" fill="#000000" fill-rule="evenodd" fill-opacity="1" /><path clip-path="url(#clip210)" d="M 0 0 M2121.58 1477.11 L2126.46 1477.11 L2126.46 1482.99 L2121.58 1482.99 L2121.58 1477.11 Z" fill="#000000" fill-rule="evenodd" fill-opacity="1" /><path clip-path="url(#clip210)" d="M 0 0 M2135.56 1479.06 L2151.88 1479.06 L2151.88 1482.99 L2129.94 1482.99 L2129.94 1479.06 Q2132.6 1476.3 2137.18 1471.67 Q2141.79 1467.02 2142.97 1465.68 Q2145.21 1463.15 2146.09 1461.42 Q2147 1459.66 2147 1457.97 Q2147 1455.21 2145.05 1453.48 Q2143.13 1451.74 2140.03 1451.74 Q2137.83 1451.74 2135.37 1452.51 Q2132.94 1453.27 2130.17 1454.82 L2130.17 1450.1 Q2132.99 1448.96 2135.44 1448.39 Q2137.9 1447.81 2139.94 1447.81 Q2145.31 1447.81 2148.5 1450.49 Q2151.69 1453.18 2151.69 1457.67 Q2151.69 1459.8 2150.88 1461.72 Q2150.1 1463.62 2147.99 1466.21 Q2147.41 1466.88 2144.31 1470.1 Q2141.21 1473.29 2135.56 1479.06 Z" fill="#000000" fill-rule="evenodd" fill-opacity="1" /><polyline clip-path="url(#clip212)" style="stroke:#000000; stroke-width:2; stroke-opacity:0.1; fill:none" points="
  173.902,1384.15 2256.76,1384.15 
  "/>
<polyline clip-path="url(#clip212)" style="stroke:#000000; stroke-width:2; stroke-opacity:0.1; fill:none" points="
  173.902,1059.66 2256.76,1059.66 
  "/>
<polyline clip-path="url(#clip212)" style="stroke:#000000; stroke-width:2; stroke-opacity:0.1; fill:none" points="
  173.902,735.166 2256.76,735.166 
  "/>
<polyline clip-path="url(#clip212)" style="stroke:#000000; stroke-width:2; stroke-opacity:0.1; fill:none" points="
  173.902,410.675 2256.76,410.675 
  "/>
<polyline clip-path="url(#clip212)" style="stroke:#000000; stroke-width:2; stroke-opacity:0.1; fill:none" points="
  173.902,86.1831 2256.76,86.1831 
  "/>
<polyline clip-path="url(#clip210)" style="stroke:#000000; stroke-width:4; stroke-opacity:1; fill:none" points="
  173.902,1423.09 173.902,47.2441 
  "/>
<polyline clip-path="url(#clip210)" style="stroke:#000000; stroke-width:4; stroke-opacity:1; fill:none" points="
  173.902,1384.15 198.896,1384.15 
  "/>
<polyline clip-path="url(#clip210)" style="stroke:#000000; stroke-width:4; stroke-opacity:1; fill:none" points="
  173.902,1059.66 198.896,1059.66 
  "/>
<polyline clip-path="url(#clip210)" style="stroke:#000000; stroke-width:4; stroke-opacity:1; fill:none" points="
  173.902,735.166 198.896,735.166 
  "/>
<polyline clip-path="url(#clip210)" style="stroke:#000000; stroke-width:4; stroke-opacity:1; fill:none" points="
  173.902,410.675 198.896,410.675 
  "/>
<polyline clip-path="url(#clip210)" style="stroke:#000000; stroke-width:4; stroke-opacity:1; fill:none" points="
  173.902,86.1831 198.896,86.1831 
  "/>
<path clip-path="url(#clip210)" d="M 0 0 M63.4165 1369.95 Q59.8054 1369.95 57.9767 1373.51 Q56.1712 1377.05 56.1712 1384.18 Q56.1712 1391.29 57.9767 1394.85 Q59.8054 1398.4 63.4165 1398.4 Q67.0507 1398.4 68.8563 1394.85 Q70.685 1391.29 70.685 1384.18 Q70.685 1377.05 68.8563 1373.51 Q67.0507 1369.95 63.4165 1369.95 M63.4165 1366.24 Q69.2267 1366.24 72.2822 1370.85 Q75.3609 1375.43 75.3609 1384.18 Q75.3609 1392.91 72.2822 1397.52 Q69.2267 1402.1 63.4165 1402.1 Q57.6064 1402.1 54.5277 1397.52 Q51.4721 1392.91 51.4721 1384.18 Q51.4721 1375.43 54.5277 1370.85 Q57.6064 1366.24 63.4165 1366.24 Z" fill="#000000" fill-rule="evenodd" fill-opacity="1" /><path clip-path="url(#clip210)" d="M 0 0 M80.4303 1395.55 L85.3145 1395.55 L85.3145 1401.43 L80.4303 1401.43 L80.4303 1395.55 Z" fill="#000000" fill-rule="evenodd" fill-opacity="1" /><path clip-path="url(#clip210)" d="M 0 0 M100.384 1369.95 Q96.7728 1369.95 94.9441 1373.51 Q93.1386 1377.05 93.1386 1384.18 Q93.1386 1391.29 94.9441 1394.85 Q96.7728 1398.4 100.384 1398.4 Q104.018 1398.4 105.824 1394.85 Q107.652 1391.29 107.652 1384.18 Q107.652 1377.05 105.824 1373.51 Q104.018 1369.95 100.384 1369.95 M100.384 1366.24 Q106.194 1366.24 109.25 1370.85 Q112.328 1375.43 112.328 1384.18 Q112.328 1392.91 109.25 1397.52 Q106.194 1402.1 100.384 1402.1 Q94.5737 1402.1 91.4951 1397.52 Q88.4395 1392.91 88.4395 1384.18 Q88.4395 1375.43 91.4951 1370.85 Q94.5737 1366.24 100.384 1366.24 Z" fill="#000000" fill-rule="evenodd" fill-opacity="1" /><path clip-path="url(#clip210)" d="M 0 0 M127.398 1369.95 Q123.787 1369.95 121.958 1373.51 Q120.152 1377.05 120.152 1384.18 Q120.152 1391.29 121.958 1394.85 Q123.787 1398.4 127.398 1398.4 Q131.032 1398.4 132.837 1394.85 Q134.666 1391.29 134.666 1384.18 Q134.666 1377.05 132.837 1373.51 Q131.032 1369.95 127.398 1369.95 M127.398 1366.24 Q133.208 1366.24 136.263 1370.85 Q139.342 1375.43 139.342 1384.18 Q139.342 1392.91 136.263 1397.52 Q133.208 1402.1 127.398 1402.1 Q121.587 1402.1 118.509 1397.52 Q115.453 1392.91 115.453 1384.18 Q115.453 1375.43 118.509 1370.85 Q121.587 1366.24 127.398 1366.24 Z" fill="#000000" fill-rule="evenodd" fill-opacity="1" /><path clip-path="url(#clip210)" d="M 0 0 M66.0091 1045.46 Q62.398 1045.46 60.5693 1049.02 Q58.7638 1052.56 58.7638 1059.69 Q58.7638 1066.8 60.5693 1070.36 Q62.398 1073.91 66.0091 1073.91 Q69.6433 1073.91 71.4489 1070.36 Q73.2776 1066.8 73.2776 1059.69 Q73.2776 1052.56 71.4489 1049.02 Q69.6433 1045.46 66.0091 1045.46 M66.0091 1041.75 Q71.8192 1041.75 74.8748 1046.36 Q77.9535 1050.94 77.9535 1059.69 Q77.9535 1068.42 74.8748 1073.03 Q71.8192 1077.61 66.0091 1077.61 Q60.1989 1077.61 57.1202 1073.03 Q54.0647 1068.42 54.0647 1059.69 Q54.0647 1050.94 57.1202 1046.36 Q60.1989 1041.75 66.0091 1041.75 Z" fill="#000000" fill-rule="evenodd" fill-opacity="1" /><path clip-path="url(#clip210)" d="M 0 0 M83.0229 1071.06 L87.9071 1071.06 L87.9071 1076.94 L83.0229 1076.94 L83.0229 1071.06 Z" fill="#000000" fill-rule="evenodd" fill-opacity="1" /><path clip-path="url(#clip210)" d="M 0 0 M97.0043 1073 L113.324 1073 L113.324 1076.94 L91.3793 1076.94 L91.3793 1073 Q94.0413 1070.25 98.6247 1065.62 Q103.231 1060.97 104.412 1059.62 Q106.657 1057.1 107.537 1055.36 Q108.439 1053.6 108.439 1051.91 Q108.439 1049.16 106.495 1047.42 Q104.574 1045.69 101.472 1045.69 Q99.2728 1045.69 96.8191 1046.45 Q94.3886 1047.22 91.6108 1048.77 L91.6108 1044.04 Q94.4349 1042.91 96.8885 1042.33 Q99.3422 1041.75 101.379 1041.75 Q106.75 1041.75 109.944 1044.44 Q113.138 1047.12 113.138 1051.61 Q113.138 1053.74 112.328 1055.66 Q111.541 1057.56 109.435 1060.16 Q108.856 1060.83 105.754 1064.04 Q102.652 1067.24 97.0043 1073 Z" fill="#000000" fill-rule="evenodd" fill-opacity="1" /><path clip-path="url(#clip210)" d="M 0 0 M118.439 1042.38 L136.796 1042.38 L136.796 1046.31 L122.722 1046.31 L122.722 1054.78 Q123.74 1054.44 124.759 1054.28 Q125.777 1054.09 126.796 1054.09 Q132.583 1054.09 135.962 1057.26 Q139.342 1060.43 139.342 1065.85 Q139.342 1071.43 135.87 1074.53 Q132.398 1077.61 126.078 1077.61 Q123.902 1077.61 121.634 1077.24 Q119.388 1076.87 116.981 1076.13 L116.981 1071.43 Q119.064 1072.56 121.287 1073.12 Q123.509 1073.67 125.986 1073.67 Q129.99 1073.67 132.328 1071.57 Q134.666 1069.46 134.666 1065.85 Q134.666 1062.24 132.328 1060.13 Q129.99 1058.03 125.986 1058.03 Q124.111 1058.03 122.236 1058.44 Q120.384 1058.86 118.439 1059.74 L118.439 1042.38 Z" fill="#000000" fill-rule="evenodd" fill-opacity="1" /><path clip-path="url(#clip210)" d="M 0 0 M64.4119 720.965 Q60.8008 720.965 58.9721 724.529 Q57.1665 728.071 57.1665 735.201 Q57.1665 742.307 58.9721 745.872 Q60.8008 749.414 64.4119 749.414 Q68.0461 749.414 69.8517 745.872 Q71.6804 742.307 71.6804 735.201 Q71.6804 728.071 69.8517 724.529 Q68.0461 720.965 64.4119 720.965 M64.4119 717.261 Q70.222 717.261 73.2776 721.867 Q76.3563 726.451 76.3563 735.201 Q76.3563 743.928 73.2776 748.534 Q70.222 753.117 64.4119 753.117 Q58.6017 753.117 55.523 748.534 Q52.4675 743.928 52.4675 735.201 Q52.4675 726.451 55.523 721.867 Q58.6017 717.261 64.4119 717.261 Z" fill="#000000" fill-rule="evenodd" fill-opacity="1" /><path clip-path="url(#clip210)" d="M 0 0 M81.4257 746.566 L86.3099 746.566 L86.3099 752.446 L81.4257 752.446 L81.4257 746.566 Z" fill="#000000" fill-rule="evenodd" fill-opacity="1" /><path clip-path="url(#clip210)" d="M 0 0 M91.4256 717.886 L109.782 717.886 L109.782 721.821 L95.708 721.821 L95.708 730.293 Q96.7265 729.946 97.745 729.784 Q98.7635 729.599 99.7821 729.599 Q105.569 729.599 108.949 732.77 Q112.328 735.941 112.328 741.358 Q112.328 746.937 108.856 750.039 Q105.384 753.117 99.0645 753.117 Q96.8885 753.117 94.62 752.747 Q92.3747 752.377 89.9673 751.636 L89.9673 746.937 Q92.0506 748.071 94.2728 748.627 Q96.495 749.182 98.9719 749.182 Q102.976 749.182 105.314 747.076 Q107.652 744.969 107.652 741.358 Q107.652 737.747 105.314 735.641 Q102.976 733.534 98.9719 733.534 Q97.0969 733.534 95.2219 733.951 Q93.37 734.367 91.4256 735.247 L91.4256 717.886 Z" fill="#000000" fill-rule="evenodd" fill-opacity="1" /><path clip-path="url(#clip210)" d="M 0 0 M127.398 720.965 Q123.787 720.965 121.958 724.529 Q120.152 728.071 120.152 735.201 Q120.152 742.307 121.958 745.872 Q123.787 749.414 127.398 749.414 Q131.032 749.414 132.837 745.872 Q134.666 742.307 134.666 735.201 Q134.666 728.071 132.837 724.529 Q131.032 720.965 127.398 720.965 M127.398 717.261 Q133.208 717.261 136.263 721.867 Q139.342 726.451 139.342 735.201 Q139.342 743.928 136.263 748.534 Q133.208 753.117 127.398 753.117 Q121.587 753.117 118.509 748.534 Q115.453 743.928 115.453 735.201 Q115.453 726.451 118.509 721.867 Q121.587 717.261 127.398 717.261 Z" fill="#000000" fill-rule="evenodd" fill-opacity="1" /><path clip-path="url(#clip210)" d="M 0 0 M65.3146 396.473 Q61.7036 396.473 59.8749 400.038 Q58.0693 403.58 58.0693 410.709 Q58.0693 417.816 59.8749 421.38 Q61.7036 424.922 65.3146 424.922 Q68.9489 424.922 70.7544 421.38 Q72.5831 417.816 72.5831 410.709 Q72.5831 403.58 70.7544 400.038 Q68.9489 396.473 65.3146 396.473 M65.3146 392.77 Q71.1248 392.77 74.1803 397.376 Q77.259 401.959 77.259 410.709 Q77.259 419.436 74.1803 424.043 Q71.1248 428.626 65.3146 428.626 Q59.5045 428.626 56.4258 424.043 Q53.3703 419.436 53.3703 410.709 Q53.3703 401.959 56.4258 397.376 Q59.5045 392.77 65.3146 392.77 Z" fill="#000000" fill-rule="evenodd" fill-opacity="1" /><path clip-path="url(#clip210)" d="M 0 0 M82.3284 422.075 L87.2127 422.075 L87.2127 427.955 L82.3284 427.955 L82.3284 422.075 Z" fill="#000000" fill-rule="evenodd" fill-opacity="1" /><path clip-path="url(#clip210)" d="M 0 0 M91.1015 393.395 L113.324 393.395 L113.324 395.385 L100.777 427.955 L95.8932 427.955 L107.699 397.33 L91.1015 397.33 L91.1015 393.395 Z" fill="#000000" fill-rule="evenodd" fill-opacity="1" /><path clip-path="url(#clip210)" d="M 0 0 M118.439 393.395 L136.796 393.395 L136.796 397.33 L122.722 397.33 L122.722 405.802 Q123.74 405.455 124.759 405.293 Q125.777 405.107 126.796 405.107 Q132.583 405.107 135.962 408.279 Q139.342 411.45 139.342 416.867 Q139.342 422.445 135.87 425.547 Q132.398 428.626 126.078 428.626 Q123.902 428.626 121.634 428.255 Q119.388 427.885 116.981 427.144 L116.981 422.445 Q119.064 423.58 121.287 424.135 Q123.509 424.691 125.986 424.691 Q129.99 424.691 132.328 422.584 Q134.666 420.478 134.666 416.867 Q134.666 413.256 132.328 411.149 Q129.99 409.043 125.986 409.043 Q124.111 409.043 122.236 409.459 Q120.384 409.876 118.439 410.756 L118.439 393.395 Z" fill="#000000" fill-rule="evenodd" fill-opacity="1" /><path clip-path="url(#clip210)" d="M 0 0 M55.4536 99.5279 L63.0924 99.5279 L63.0924 73.1623 L54.7823 74.829 L54.7823 70.5697 L63.0461 68.9031 L67.722 68.9031 L67.722 99.5279 L75.3609 99.5279 L75.3609 103.463 L55.4536 103.463 L55.4536 99.5279 Z" fill="#000000" fill-rule="evenodd" fill-opacity="1" /><path clip-path="url(#clip210)" d="M 0 0 M80.4303 97.5835 L85.3145 97.5835 L85.3145 103.463 L80.4303 103.463 L80.4303 97.5835 Z" fill="#000000" fill-rule="evenodd" fill-opacity="1" /><path clip-path="url(#clip210)" d="M 0 0 M100.384 71.9818 Q96.7728 71.9818 94.9441 75.5466 Q93.1386 79.0882 93.1386 86.2178 Q93.1386 93.3242 94.9441 96.889 Q96.7728 100.431 100.384 100.431 Q104.018 100.431 105.824 96.889 Q107.652 93.3242 107.652 86.2178 Q107.652 79.0882 105.824 75.5466 Q104.018 71.9818 100.384 71.9818 M100.384 68.2781 Q106.194 68.2781 109.25 72.8845 Q112.328 77.4678 112.328 86.2178 Q112.328 94.9446 109.25 99.5511 Q106.194 104.134 100.384 104.134 Q94.5737 104.134 91.4951 99.5511 Q88.4395 94.9446 88.4395 86.2178 Q88.4395 77.4678 91.4951 72.8845 Q94.5737 68.2781 100.384 68.2781 Z" fill="#000000" fill-rule="evenodd" fill-opacity="1" /><path clip-path="url(#clip210)" d="M 0 0 M127.398 71.9818 Q123.787 71.9818 121.958 75.5466 Q120.152 79.0882 120.152 86.2178 Q120.152 93.3242 121.958 96.889 Q123.787 100.431 127.398 100.431 Q131.032 100.431 132.837 96.889 Q134.666 93.3242 134.666 86.2178 Q134.666 79.0882 132.837 75.5466 Q131.032 71.9818 127.398 71.9818 M127.398 68.2781 Q133.208 68.2781 136.263 72.8845 Q139.342 77.4678 139.342 86.2178 Q139.342 94.9446 136.263 99.5511 Q133.208 104.134 127.398 104.134 Q121.587 104.134 118.509 99.5511 Q115.453 94.9446 115.453 86.2178 Q115.453 77.4678 118.509 72.8845 Q121.587 68.2781 127.398 68.2781 Z" fill="#000000" fill-rule="evenodd" fill-opacity="1" /><polyline clip-path="url(#clip212)" style="stroke:#009af9; stroke-width:4; stroke-opacity:1; fill:none" points="
  566.419,86.1831 566.998,86.1832 568.158,86.1843 569.897,86.1879 572.215,86.1963 575.113,86.2127 578.589,86.2408 582.644,86.2854 587.278,86.3519 592.488,86.4464 
  598.276,86.5759 604.639,86.7481 611.577,86.9714 619.088,87.2551 627.171,87.609 635.823,88.0439 645.043,88.571 654.827,89.2024 665.173,89.9509 676.077,90.8298 
  687.535,91.8531 699.542,93.0354 712.093,94.3919 725.181,95.9383 738.801,97.6908 752.945,99.666 767.603,101.881 782.768,104.353 798.429,107.1 814.575,110.14 
  831.194,113.491 848.273,117.171 865.797,121.198 883.752,125.591 902.12,130.366 920.884,135.543 940.026,141.137 959.524,147.166 979.359,153.647 999.506,160.594 
  1019.94,168.022 1040.65,175.946 1061.59,184.378 1082.74,193.329 1104.08,202.811 1125.57,212.832 1147.19,223.4 1168.9,234.521 1190.68,246.2 1212.48,258.44 
  1234.29,271.241 1256.06,284.602 1277.77,298.521 1299.38,312.993 1320.86,328.011 1342.17,343.566 1363.29,359.648 1384.17,376.244 1404.8,393.339 1425.14,410.916 
  1445.17,428.957 1464.84,447.442 1484.15,466.348 1503.05,485.652 1521.54,505.329 1539.58,525.351 1557.16,545.692 1574.25,566.321 1590.85,587.209 1606.93,608.325 
  1622.48,629.638 1637.5,651.115 1651.97,672.723 1665.89,694.431 1679.25,716.204 1692.06,738.011 1704.29,759.818 1715.97,781.594 1727.09,803.307 1737.66,824.925 
  1747.68,846.417 1757.17,867.754 1766.12,888.908 1774.55,909.849 1782.47,930.551 1789.9,950.989 1796.85,971.136 1803.33,990.971 1809.36,1010.47 1814.95,1029.61 
  1820.13,1048.37 1824.9,1066.74 1829.3,1084.7 1833.32,1102.22 1837,1119.3 1840.35,1135.92 1843.39,1152.07 1846.14,1167.73 1848.61,1182.89 1850.83,1197.55 
  1852.8,1211.69 1854.56,1225.31 1856.1,1238.4 1857.46,1250.95 1858.64,1262.96 1859.67,1274.42 1860.54,1285.32 1861.29,1295.67 1861.92,1305.45 1862.45,1314.67 
  1862.89,1323.32 1863.24,1331.41 1863.52,1338.92 1863.75,1345.86 1863.92,1352.22 1864.05,1358.01 1864.14,1363.22 1864.21,1367.85 1864.25,1371.91 1864.28,1375.38 
  1864.3,1378.28 1864.31,1380.6 1864.31,1382.34 1864.31,1383.5 1864.31,1384.08 
  "/>
<polyline clip-path="url(#clip212)" style="stroke:#009af9; stroke-width:4; stroke-opacity:1; fill:none" points="
  1881.58,1349.51 1864.31,1384.08 1847.02,1349.52 
  "/>
<polyline clip-path="url(#clip212)" style="stroke:#009af9; stroke-width:4; stroke-opacity:1; fill:none" points="
  1864.31,1384.08 1864.31,1383.5 
  "/>
<polyline clip-path="url(#clip212)" style="stroke:#e26f46; stroke-width:4; stroke-opacity:1; fill:none" points="
  1864.31,1384.15 566.346,86.1831 
  "/>
<polyline clip-path="url(#clip212)" style="stroke:#e26f46; stroke-width:4; stroke-opacity:1; fill:none" points="
  578.565,122.839 566.346,86.1831 603.002,98.4019 
  "/>
<polyline clip-path="url(#clip212)" style="stroke:#e26f46; stroke-width:4; stroke-opacity:1; fill:none" points="
  566.346,86.1831 1864.31,1384.15 
  "/>
</svg>
