<?xml version="1.0" encoding="utf-8"?>
<svg xmlns="http://www.w3.org/2000/svg" xmlns:xlink="http://www.w3.org/1999/xlink" width="576" height="384" viewBox="0 0 2304 1536">
<defs>
  <clipPath id="clip130">
    <rect x="0" y="0" width="2304" height="1536"/>
  </clipPath>
</defs>
<path clip-path="url(#clip130)" d="
M0 1536 L2304 1536 L2304 0 L0 0  Z
  " fill="#ffffff" fill-rule="evenodd" fill-opacity="1"/>
<defs>
  <clipPath id="clip131">
    <rect x="460" y="0" width="1614" height="1536"/>
  </clipPath>
</defs>
<path clip-path="url(#clip130)" d="
M178.694 1423.09 L2256.76 1423.09 L2256.76 47.2441 L178.694 47.2441  Z
  " fill="#ffffff" fill-rule="evenodd" fill-opacity="1"/>
<defs>
  <clipPath id="clip132">
    <rect x="178" y="47" width="2079" height="1377"/>
  </clipPath>
</defs>
<polyline clip-path="url(#clip132)" style="stroke:#000000; stroke-width:2; stroke-opacity:0.1; fill:none" points="
  319.006,1423.09 319.006,47.2441 
  "/>
<polyline clip-path="url(#clip132)" style="stroke:#000000; stroke-width:2; stroke-opacity:0.1; fill:none" points="
  687.712,1423.09 687.712,47.2441 
  "/>
<polyline clip-path="url(#clip132)" style="stroke:#000000; stroke-width:2; stroke-opacity:0.1; fill:none" points="
  1056.42,1423.09 1056.42,47.2441 
  "/>
<polyline clip-path="url(#clip132)" style="stroke:#000000; stroke-width:2; stroke-opacity:0.1; fill:none" points="
  1425.12,1423.09 1425.12,47.2441 
  "/>
<polyline clip-path="url(#clip132)" style="stroke:#000000; stroke-width:2; stroke-opacity:0.1; fill:none" points="
  1793.83,1423.09 1793.83,47.2441 
  "/>
<polyline clip-path="url(#clip132)" style="stroke:#000000; stroke-width:2; stroke-opacity:0.1; fill:none" points="
  2162.54,1423.09 2162.54,47.2441 
  "/>
<polyline clip-path="url(#clip130)" style="stroke:#000000; stroke-width:4; stroke-opacity:1; fill:none" points="
  178.694,1423.09 2256.76,1423.09 
  "/>
<polyline clip-path="url(#clip130)" style="stroke:#000000; stroke-width:4; stroke-opacity:1; fill:none" points="
  319.006,1423.09 319.006,1406.58 
  "/>
<polyline clip-path="url(#clip130)" style="stroke:#000000; stroke-width:4; stroke-opacity:1; fill:none" points="
  687.712,1423.09 687.712,1406.58 
  "/>
<polyline clip-path="url(#clip130)" style="stroke:#000000; stroke-width:4; stroke-opacity:1; fill:none" points="
  1056.42,1423.09 1056.42,1406.58 
  "/>
<polyline clip-path="url(#clip130)" style="stroke:#000000; stroke-width:4; stroke-opacity:1; fill:none" points="
  1425.12,1423.09 1425.12,1406.58 
  "/>
<polyline clip-path="url(#clip130)" style="stroke:#000000; stroke-width:4; stroke-opacity:1; fill:none" points="
  1793.83,1423.09 1793.83,1406.58 
  "/>
<polyline clip-path="url(#clip130)" style="stroke:#000000; stroke-width:4; stroke-opacity:1; fill:none" points="
  2162.54,1423.09 2162.54,1406.58 
  "/>
<path clip-path="url(#clip130)" d="M 0 0 M291.46 1466.16 L321.136 1466.16 L321.136 1470.1 L291.46 1470.1 L291.46 1466.16 Z" fill="#000000" fill-rule="evenodd" fill-opacity="1" /><path clip-path="url(#clip130)" d="M 0 0 M330.233 1479.06 L346.552 1479.06 L346.552 1482.99 L324.608 1482.99 L324.608 1479.06 Q327.27 1476.3 331.853 1471.67 Q336.46 1467.02 337.64 1465.68 Q339.886 1463.15 340.765 1461.42 Q341.668 1459.66 341.668 1457.97 Q341.668 1455.21 339.724 1453.48 Q337.802 1451.74 334.7 1451.74 Q332.501 1451.74 330.048 1452.51 Q327.617 1453.27 324.839 1454.82 L324.839 1450.1 Q327.663 1448.96 330.117 1448.39 Q332.571 1447.81 334.608 1447.81 Q339.978 1447.81 343.173 1450.49 Q346.367 1453.18 346.367 1457.67 Q346.367 1459.8 345.557 1461.72 Q344.77 1463.62 342.663 1466.21 Q342.085 1466.88 338.983 1470.1 Q335.881 1473.29 330.233 1479.06 Z" fill="#000000" fill-rule="evenodd" fill-opacity="1" /><path clip-path="url(#clip130)" d="M 0 0 M659.981 1466.16 L689.656 1466.16 L689.656 1470.1 L659.981 1470.1 L659.981 1466.16 Z" fill="#000000" fill-rule="evenodd" fill-opacity="1" /><path clip-path="url(#clip130)" d="M 0 0 M695.536 1479.06 L703.175 1479.06 L703.175 1452.69 L694.865 1454.36 L694.865 1450.1 L703.129 1448.43 L707.805 1448.43 L707.805 1479.06 L715.443 1479.06 L715.443 1482.99 L695.536 1482.99 L695.536 1479.06 Z" fill="#000000" fill-rule="evenodd" fill-opacity="1" /><path clip-path="url(#clip130)" d="M 0 0 M1056.42 1451.51 Q1052.81 1451.51 1050.98 1455.08 Q1049.17 1458.62 1049.17 1465.75 Q1049.17 1472.85 1050.98 1476.42 Q1052.81 1479.96 1056.42 1479.96 Q1060.05 1479.96 1061.86 1476.42 Q1063.69 1472.85 1063.69 1465.75 Q1063.69 1458.62 1061.86 1455.08 Q1060.05 1451.51 1056.42 1451.51 M1056.42 1447.81 Q1062.23 1447.81 1065.28 1452.41 Q1068.36 1457 1068.36 1465.75 Q1068.36 1474.47 1065.28 1479.08 Q1062.23 1483.66 1056.42 1483.66 Q1050.61 1483.66 1047.53 1479.08 Q1044.47 1474.47 1044.47 1465.75 Q1044.47 1457 1047.53 1452.41 Q1050.61 1447.81 1056.42 1447.81 Z" fill="#000000" fill-rule="evenodd" fill-opacity="1" /><path clip-path="url(#clip130)" d="M 0 0 M1415.51 1479.06 L1423.14 1479.06 L1423.14 1452.69 L1414.83 1454.36 L1414.83 1450.1 L1423.1 1448.43 L1427.77 1448.43 L1427.77 1479.06 L1435.41 1479.06 L1435.41 1482.99 L1415.51 1482.99 L1415.51 1479.06 Z" fill="#000000" fill-rule="evenodd" fill-opacity="1" /><path clip-path="url(#clip130)" d="M 0 0 M1788.48 1479.06 L1804.8 1479.06 L1804.8 1482.99 L1782.86 1482.99 L1782.86 1479.06 Q1785.52 1476.3 1790.1 1471.67 Q1794.71 1467.02 1795.89 1465.68 Q1798.14 1463.15 1799.02 1461.42 Q1799.92 1459.66 1799.92 1457.97 Q1799.92 1455.21 1797.97 1453.48 Q1796.05 1451.74 1792.95 1451.74 Q1790.75 1451.74 1788.3 1452.51 Q1785.87 1453.27 1783.09 1454.82 L1783.09 1450.1 Q1785.91 1448.96 1788.37 1448.39 Q1790.82 1447.81 1792.86 1447.81 Q1798.23 1447.81 1801.42 1450.49 Q1804.62 1453.18 1804.62 1457.67 Q1804.62 1459.8 1803.81 1461.72 Q1803.02 1463.62 1800.91 1466.21 Q1800.33 1466.88 1797.23 1470.1 Q1794.13 1473.29 1788.48 1479.06 Z" fill="#000000" fill-rule="evenodd" fill-opacity="1" /><path clip-path="url(#clip130)" d="M 0 0 M2166.78 1464.36 Q2170.14 1465.08 2172.02 1467.34 Q2173.91 1469.61 2173.91 1472.95 Q2173.91 1478.06 2170.39 1480.86 Q2166.88 1483.66 2160.39 1483.66 Q2158.22 1483.66 2155.9 1483.22 Q2153.61 1482.81 2151.16 1481.95 L2151.16 1477.44 Q2153.1 1478.57 2155.42 1479.15 Q2157.73 1479.73 2160.26 1479.73 Q2164.65 1479.73 2166.95 1477.99 Q2169.26 1476.26 2169.26 1472.95 Q2169.26 1469.89 2167.11 1468.18 Q2164.98 1466.44 2161.16 1466.44 L2157.13 1466.44 L2157.13 1462.6 L2161.34 1462.6 Q2164.79 1462.6 2166.62 1461.23 Q2168.45 1459.84 2168.45 1457.25 Q2168.45 1454.59 2166.55 1453.18 Q2164.68 1451.74 2161.16 1451.74 Q2159.24 1451.74 2157.04 1452.16 Q2154.84 1452.58 2152.2 1453.45 L2152.2 1449.29 Q2154.86 1448.55 2157.18 1448.18 Q2159.52 1447.81 2161.58 1447.81 Q2166.9 1447.81 2170 1450.24 Q2173.1 1452.64 2173.1 1456.77 Q2173.1 1459.64 2171.46 1461.63 Q2169.82 1463.59 2166.78 1464.36 Z" fill="#000000" fill-rule="evenodd" fill-opacity="1" /><polyline clip-path="url(#clip132)" style="stroke:#000000; stroke-width:2; stroke-opacity:0.1; fill:none" points="
  178.694,1288.22 2256.76,1288.22 
  "/>
<polyline clip-path="url(#clip132)" style="stroke:#000000; stroke-width:2; stroke-opacity:0.1; fill:none" points="
  178.694,1103.87 2256.76,1103.87 
  "/>
<polyline clip-path="url(#clip132)" style="stroke:#000000; stroke-width:2; stroke-opacity:0.1; fill:none" points="
  178.694,919.519 2256.76,919.519 
  "/>
<polyline clip-path="url(#clip132)" style="stroke:#000000; stroke-width:2; stroke-opacity:0.1; fill:none" points="
  178.694,735.166 2256.76,735.166 
  "/>
<polyline clip-path="url(#clip132)" style="stroke:#000000; stroke-width:2; stroke-opacity:0.1; fill:none" points="
  178.694,550.813 2256.76,550.813 
  "/>
<polyline clip-path="url(#clip132)" style="stroke:#000000; stroke-width:2; stroke-opacity:0.1; fill:none" points="
  178.694,366.46 2256.76,366.46 
  "/>
<polyline clip-path="url(#clip132)" style="stroke:#000000; stroke-width:2; stroke-opacity:0.1; fill:none" points="
  178.694,182.107 2256.76,182.107 
  "/>
<polyline clip-path="url(#clip130)" style="stroke:#000000; stroke-width:4; stroke-opacity:1; fill:none" points="
  178.694,1423.09 178.694,47.2441 
  "/>
<polyline clip-path="url(#clip130)" style="stroke:#000000; stroke-width:4; stroke-opacity:1; fill:none" points="
  178.694,1288.22 203.63,1288.22 
  "/>
<polyline clip-path="url(#clip130)" style="stroke:#000000; stroke-width:4; stroke-opacity:1; fill:none" points="
  178.694,1103.87 203.63,1103.87 
  "/>
<polyline clip-path="url(#clip130)" style="stroke:#000000; stroke-width:4; stroke-opacity:1; fill:none" points="
  178.694,919.519 203.63,919.519 
  "/>
<polyline clip-path="url(#clip130)" style="stroke:#000000; stroke-width:4; stroke-opacity:1; fill:none" points="
  178.694,735.166 203.63,735.166 
  "/>
<polyline clip-path="url(#clip130)" style="stroke:#000000; stroke-width:4; stroke-opacity:1; fill:none" points="
  178.694,550.813 203.63,550.813 
  "/>
<polyline clip-path="url(#clip130)" style="stroke:#000000; stroke-width:4; stroke-opacity:1; fill:none" points="
  178.694,366.46 203.63,366.46 
  "/>
<polyline clip-path="url(#clip130)" style="stroke:#000000; stroke-width:4; stroke-opacity:1; fill:none" points="
  178.694,182.107 203.63,182.107 
  "/>
<path clip-path="url(#clip130)" d="M 0 0 M52.699 1288.68 L82.3747 1288.68 L82.3747 1292.61 L52.699 1292.61 L52.699 1288.68 Z" fill="#000000" fill-rule="evenodd" fill-opacity="1" /><path clip-path="url(#clip130)" d="M 0 0 M88.2543 1301.57 L95.8932 1301.57 L95.8932 1275.2 L87.583 1276.87 L87.583 1272.61 L95.8469 1270.94 L100.523 1270.94 L100.523 1301.57 L108.162 1301.57 L108.162 1305.5 L88.2543 1305.5 L88.2543 1301.57 Z" fill="#000000" fill-rule="evenodd" fill-opacity="1" /><path clip-path="url(#clip130)" d="M 0 0 M113.231 1299.63 L118.115 1299.63 L118.115 1305.5 L113.231 1305.5 L113.231 1299.63 Z" fill="#000000" fill-rule="evenodd" fill-opacity="1" /><path clip-path="url(#clip130)" d="M 0 0 M123.231 1270.94 L141.587 1270.94 L141.587 1274.88 L127.513 1274.88 L127.513 1283.35 Q128.532 1283.01 129.55 1282.84 Q130.569 1282.66 131.587 1282.66 Q137.374 1282.66 140.754 1285.83 Q144.134 1289 144.134 1294.42 Q144.134 1300 140.661 1303.1 Q137.189 1306.18 130.87 1306.18 Q128.694 1306.18 126.425 1305.81 Q124.18 1305.44 121.773 1304.69 L121.773 1300 Q123.856 1301.13 126.078 1301.69 Q128.3 1302.24 130.777 1302.24 Q134.782 1302.24 137.12 1300.13 Q139.458 1298.03 139.458 1294.42 Q139.458 1290.81 137.12 1288.7 Q134.782 1286.59 130.777 1286.59 Q128.902 1286.59 127.027 1287.01 Q125.175 1287.43 123.231 1288.31 L123.231 1270.94 Z" fill="#000000" fill-rule="evenodd" fill-opacity="1" /><path clip-path="url(#clip130)" d="M 0 0 M51.7036 1104.32 L81.3794 1104.32 L81.3794 1108.26 L51.7036 1108.26 L51.7036 1104.32 Z" fill="#000000" fill-rule="evenodd" fill-opacity="1" /><path clip-path="url(#clip130)" d="M 0 0 M87.259 1117.22 L94.8978 1117.22 L94.8978 1090.85 L86.5877 1092.52 L86.5877 1088.26 L94.8515 1086.59 L99.5274 1086.59 L99.5274 1117.22 L107.166 1117.22 L107.166 1121.15 L87.259 1121.15 L87.259 1117.22 Z" fill="#000000" fill-rule="evenodd" fill-opacity="1" /><path clip-path="url(#clip130)" d="M 0 0 M112.236 1115.27 L117.12 1115.27 L117.12 1121.15 L112.236 1121.15 L112.236 1115.27 Z" fill="#000000" fill-rule="evenodd" fill-opacity="1" /><path clip-path="url(#clip130)" d="M 0 0 M132.189 1089.67 Q128.578 1089.67 126.75 1093.24 Q124.944 1096.78 124.944 1103.91 Q124.944 1111.01 126.75 1114.58 Q128.578 1118.12 132.189 1118.12 Q135.824 1118.12 137.629 1114.58 Q139.458 1111.01 139.458 1103.91 Q139.458 1096.78 137.629 1093.24 Q135.824 1089.67 132.189 1089.67 M132.189 1085.97 Q137.999 1085.97 141.055 1090.57 Q144.134 1095.16 144.134 1103.91 Q144.134 1112.63 141.055 1117.24 Q137.999 1121.82 132.189 1121.82 Q126.379 1121.82 123.3 1117.24 Q120.245 1112.63 120.245 1103.91 Q120.245 1095.16 123.3 1090.57 Q126.379 1085.97 132.189 1085.97 Z" fill="#000000" fill-rule="evenodd" fill-opacity="1" /><path clip-path="url(#clip130)" d="M 0 0 M51.4721 919.97 L81.1479 919.97 L81.1479 923.906 L51.4721 923.906 L51.4721 919.97 Z" fill="#000000" fill-rule="evenodd" fill-opacity="1" /><path clip-path="url(#clip130)" d="M 0 0 M96.2173 905.318 Q92.6062 905.318 90.7775 908.882 Q88.9719 912.424 88.9719 919.554 Q88.9719 926.66 90.7775 930.225 Q92.6062 933.767 96.2173 933.767 Q99.8515 933.767 101.657 930.225 Q103.486 926.66 103.486 919.554 Q103.486 912.424 101.657 908.882 Q99.8515 905.318 96.2173 905.318 M96.2173 901.614 Q102.027 901.614 105.083 906.22 Q108.162 910.804 108.162 919.554 Q108.162 928.28 105.083 932.887 Q102.027 937.47 96.2173 937.47 Q90.4071 937.47 87.3284 932.887 Q84.2729 928.28 84.2729 919.554 Q84.2729 910.804 87.3284 906.22 Q90.4071 901.614 96.2173 901.614 Z" fill="#000000" fill-rule="evenodd" fill-opacity="1" /><path clip-path="url(#clip130)" d="M 0 0 M113.231 930.919 L118.115 930.919 L118.115 936.799 L113.231 936.799 L113.231 930.919 Z" fill="#000000" fill-rule="evenodd" fill-opacity="1" /><path clip-path="url(#clip130)" d="M 0 0 M123.231 902.239 L141.587 902.239 L141.587 906.174 L127.513 906.174 L127.513 914.646 Q128.532 914.299 129.55 914.137 Q130.569 913.952 131.587 913.952 Q137.374 913.952 140.754 917.123 Q144.134 920.294 144.134 925.711 Q144.134 931.29 140.661 934.392 Q137.189 937.47 130.87 937.47 Q128.694 937.47 126.425 937.1 Q124.18 936.73 121.773 935.989 L121.773 931.29 Q123.856 932.424 126.078 932.98 Q128.3 933.535 130.777 933.535 Q134.782 933.535 137.12 931.429 Q139.458 929.322 139.458 925.711 Q139.458 922.1 137.12 919.994 Q134.782 917.887 130.777 917.887 Q128.902 917.887 127.027 918.304 Q125.175 918.72 123.231 919.6 L123.231 902.239 Z" fill="#000000" fill-rule="evenodd" fill-opacity="1" /><path clip-path="url(#clip130)" d="M 0 0 M95.2219 720.965 Q91.6108 720.965 89.7821 724.529 Q87.9766 728.071 87.9766 735.201 Q87.9766 742.307 89.7821 745.872 Q91.6108 749.414 95.2219 749.414 Q98.8561 749.414 100.662 745.872 Q102.49 742.307 102.49 735.201 Q102.49 728.071 100.662 724.529 Q98.8561 720.965 95.2219 720.965 M95.2219 717.261 Q101.032 717.261 104.088 721.867 Q107.166 726.451 107.166 735.201 Q107.166 743.928 104.088 748.534 Q101.032 753.117 95.2219 753.117 Q89.4117 753.117 86.3331 748.534 Q83.2775 743.928 83.2775 735.201 Q83.2775 726.451 86.3331 721.867 Q89.4117 717.261 95.2219 717.261 Z" fill="#000000" fill-rule="evenodd" fill-opacity="1" /><path clip-path="url(#clip130)" d="M 0 0 M112.236 746.566 L117.12 746.566 L117.12 752.446 L112.236 752.446 L112.236 746.566 Z" fill="#000000" fill-rule="evenodd" fill-opacity="1" /><path clip-path="url(#clip130)" d="M 0 0 M132.189 720.965 Q128.578 720.965 126.75 724.529 Q124.944 728.071 124.944 735.201 Q124.944 742.307 126.75 745.872 Q128.578 749.414 132.189 749.414 Q135.824 749.414 137.629 745.872 Q139.458 742.307 139.458 735.201 Q139.458 728.071 137.629 724.529 Q135.824 720.965 132.189 720.965 M132.189 717.261 Q137.999 717.261 141.055 721.867 Q144.134 726.451 144.134 735.201 Q144.134 743.928 141.055 748.534 Q137.999 753.117 132.189 753.117 Q126.379 753.117 123.3 748.534 Q120.245 743.928 120.245 735.201 Q120.245 726.451 123.3 721.867 Q126.379 717.261 132.189 717.261 Z" fill="#000000" fill-rule="evenodd" fill-opacity="1" /><path clip-path="url(#clip130)" d="M 0 0 M96.2173 536.612 Q92.6062 536.612 90.7775 540.176 Q88.9719 543.718 88.9719 550.848 Q88.9719 557.954 90.7775 561.519 Q92.6062 565.061 96.2173 565.061 Q99.8515 565.061 101.657 561.519 Q103.486 557.954 103.486 550.848 Q103.486 543.718 101.657 540.176 Q99.8515 536.612 96.2173 536.612 M96.2173 532.908 Q102.027 532.908 105.083 537.514 Q108.162 542.098 108.162 550.848 Q108.162 559.575 105.083 564.181 Q102.027 568.764 96.2173 568.764 Q90.4071 568.764 87.3284 564.181 Q84.2729 559.575 84.2729 550.848 Q84.2729 542.098 87.3284 537.514 Q90.4071 532.908 96.2173 532.908 Z" fill="#000000" fill-rule="evenodd" fill-opacity="1" /><path clip-path="url(#clip130)" d="M 0 0 M113.231 562.213 L118.115 562.213 L118.115 568.093 L113.231 568.093 L113.231 562.213 Z" fill="#000000" fill-rule="evenodd" fill-opacity="1" /><path clip-path="url(#clip130)" d="M 0 0 M123.231 533.533 L141.587 533.533 L141.587 537.468 L127.513 537.468 L127.513 545.94 Q128.532 545.593 129.55 545.431 Q130.569 545.246 131.587 545.246 Q137.374 545.246 140.754 548.417 Q144.134 551.588 144.134 557.005 Q144.134 562.584 140.661 565.686 Q137.189 568.764 130.87 568.764 Q128.694 568.764 126.425 568.394 Q124.18 568.024 121.773 567.283 L121.773 562.584 Q123.856 563.718 126.078 564.274 Q128.3 564.829 130.777 564.829 Q134.782 564.829 137.12 562.723 Q139.458 560.616 139.458 557.005 Q139.458 553.394 137.12 551.288 Q134.782 549.181 130.777 549.181 Q128.902 549.181 127.027 549.598 Q125.175 550.014 123.231 550.894 L123.231 533.533 Z" fill="#000000" fill-rule="evenodd" fill-opacity="1" /><path clip-path="url(#clip130)" d="M 0 0 M87.259 379.805 L94.8978 379.805 L94.8978 353.439 L86.5877 355.106 L86.5877 350.847 L94.8515 349.18 L99.5274 349.18 L99.5274 379.805 L107.166 379.805 L107.166 383.74 L87.259 383.74 L87.259 379.805 Z" fill="#000000" fill-rule="evenodd" fill-opacity="1" /><path clip-path="url(#clip130)" d="M 0 0 M112.236 377.86 L117.12 377.86 L117.12 383.74 L112.236 383.74 L112.236 377.86 Z" fill="#000000" fill-rule="evenodd" fill-opacity="1" /><path clip-path="url(#clip130)" d="M 0 0 M132.189 352.259 Q128.578 352.259 126.75 355.824 Q124.944 359.365 124.944 366.495 Q124.944 373.601 126.75 377.166 Q128.578 380.708 132.189 380.708 Q135.824 380.708 137.629 377.166 Q139.458 373.601 139.458 366.495 Q139.458 359.365 137.629 355.824 Q135.824 352.259 132.189 352.259 M132.189 348.555 Q137.999 348.555 141.055 353.161 Q144.134 357.745 144.134 366.495 Q144.134 375.222 141.055 379.828 Q137.999 384.411 132.189 384.411 Q126.379 384.411 123.3 379.828 Q120.245 375.222 120.245 366.495 Q120.245 357.745 123.3 353.161 Q126.379 348.555 132.189 348.555 Z" fill="#000000" fill-rule="evenodd" fill-opacity="1" /><path clip-path="url(#clip130)" d="M 0 0 M88.2543 195.452 L95.8932 195.452 L95.8932 169.086 L87.583 170.753 L87.583 166.494 L95.8469 164.827 L100.523 164.827 L100.523 195.452 L108.162 195.452 L108.162 199.387 L88.2543 199.387 L88.2543 195.452 Z" fill="#000000" fill-rule="evenodd" fill-opacity="1" /><path clip-path="url(#clip130)" d="M 0 0 M113.231 193.507 L118.115 193.507 L118.115 199.387 L113.231 199.387 L113.231 193.507 Z" fill="#000000" fill-rule="evenodd" fill-opacity="1" /><path clip-path="url(#clip130)" d="M 0 0 M123.231 164.827 L141.587 164.827 L141.587 168.762 L127.513 168.762 L127.513 177.234 Q128.532 176.887 129.55 176.725 Q130.569 176.54 131.587 176.54 Q137.374 176.54 140.754 179.711 Q144.134 182.882 144.134 188.299 Q144.134 193.878 140.661 196.98 Q137.189 200.058 130.87 200.058 Q128.694 200.058 126.425 199.688 Q124.18 199.318 121.773 198.577 L121.773 193.878 Q123.856 195.012 126.078 195.568 Q128.3 196.123 130.777 196.123 Q134.782 196.123 137.12 194.017 Q139.458 191.91 139.458 188.299 Q139.458 184.688 137.12 182.582 Q134.782 180.475 130.777 180.475 Q128.902 180.475 127.027 180.892 Q125.175 181.308 123.231 182.188 L123.231 164.827 Z" fill="#000000" fill-rule="evenodd" fill-opacity="1" /><polyline clip-path="url(#clip132)" style="stroke:#009af9; stroke-width:4; stroke-opacity:1; fill:none" points="
  1056.42,735.166 1056.4,732.847 1056.33,730.529 1056.22,728.212 1056.07,725.897 1055.87,723.585 1055.63,721.275 1055.35,718.97 1055.02,716.669 1054.65,714.373 
  1054.23,712.083 1053.78,709.8 1053.28,707.523 1052.73,705.254 1052.14,702.994 1051.51,700.742 1050.84,698.5 1050.13,696.268 1049.37,694.047 1048.57,691.837 
  1047.72,689.64 1046.84,687.455 1045.91,685.283 1044.95,683.126 1043.94,680.983 1042.88,678.855 1041.79,676.743 1040.66,674.647 1039.49,672.568 1038.27,670.507 
  1037.02,668.464 1035.72,666.44 1034.39,664.435 1033.02,662.45 1031.61,660.485 1030.16,658.542 1028.67,656.62 1027.14,654.72 1025.57,652.844 1023.97,650.991 
  1022.33,649.161 1020.65,647.356 1018.94,645.577 1017.19,643.823 1015.4,642.094 1013.58,640.393 1011.72,638.719 1009.83,637.073 1007.9,635.455 1005.94,633.865 
  1003.95,632.305 1001.92,630.775 999.858,629.275 997.765,627.806 995.64,626.368 993.483,624.962 991.295,623.588 989.076,622.247 986.827,620.94 984.548,619.666 
  982.24,618.426 979.902,617.22 977.536,616.05 975.143,614.915 972.721,613.816 970.273,612.754 967.798,611.728 965.297,610.739 962.771,609.788 960.22,608.875 
  957.644,608.001 955.044,607.165 952.421,606.368 949.775,605.611 947.106,604.893 944.416,604.216 941.704,603.58 938.972,602.984 936.22,602.43 933.448,601.917 
  930.657,601.447 927.848,601.018 925.021,600.632 922.176,600.289 919.315,599.989 916.438,599.733 913.545,599.52 910.637,599.352 907.715,599.227 904.779,599.147 
  901.831,599.112 898.87,599.122 895.896,599.177 892.912,599.277 889.917,599.424 886.912,599.616 883.898,599.854 880.875,600.138 877.844,600.469 874.806,600.846 
  871.76,601.27 868.709,601.741 865.652,602.259 862.59,602.825 859.524,603.437 856.454,604.098 853.382,604.805 850.307,605.561 847.23,606.364 844.153,607.215 
  841.075,608.114 837.998,609.061 834.922,610.056 831.847,611.099 828.775,612.191 825.706,613.331 822.641,614.518 819.579,615.755 816.523,617.039 813.473,618.372 
  810.429,619.752 807.392,621.182 804.363,622.659 801.342,624.184 798.331,625.758 795.329,627.38 792.337,629.05 789.357,630.767 786.388,632.533 783.432,634.346 
  780.488,636.207 777.559,638.116 774.644,640.072 771.743,642.075 768.859,644.126 765.991,646.224 763.14,648.368 760.307,650.56 757.492,652.798 754.696,655.082 
  751.92,657.413 749.164,659.789 746.429,662.212 743.716,664.68 741.025,667.194 738.357,669.752 735.712,672.356 733.092,675.004 730.496,677.697 727.926,680.434 
  725.382,683.215 722.864,686.04 720.374,688.908 717.912,691.819 715.478,694.772 713.074,697.769 710.699,700.807 708.355,703.887 706.042,707.009 703.76,710.171 
  701.51,713.375 699.294,716.619 697.11,719.903 694.96,723.226 692.845,726.589 690.765,729.991 688.721,733.432 686.712,736.91 684.741,740.426 682.807,743.979 
  680.91,747.57 679.052,751.196 677.233,754.859 675.454,758.557 673.714,762.29 672.015,766.058 670.356,769.86 668.74,773.695 667.165,777.564 665.633,781.465 
  664.144,785.399 662.698,789.364 661.296,793.36 659.939,797.387 658.627,801.444 657.36,805.531 656.138,809.646 654.963,813.791 653.835,817.963 652.754,822.162 
  651.721,826.389 650.735,830.641 649.798,834.919 648.909,839.223 648.07,843.551 647.28,847.903 646.541,852.278 645.851,856.676 645.213,861.096 644.625,865.538 
  644.089,870 643.605,874.483 643.173,878.986 642.793,883.507 642.466,888.047 642.192,892.605 641.971,897.18 641.804,901.771 641.691,906.379 641.633,911.001 
  641.629,915.638 641.679,920.289 641.785,924.952 641.946,929.629 642.163,934.317 642.435,939.016 642.764,943.726 643.149,948.446 643.59,953.174 644.088,957.911 
  644.642,962.656 645.254,967.408 645.923,972.166 646.649,976.929 647.432,981.698 648.274,986.47 649.173,991.246 650.13,996.025 651.145,1000.81 652.218,1005.59 
  653.35,1010.37 654.54,1015.15 655.788,1019.94 657.095,1024.72 658.46,1029.49 659.884,1034.27 661.367,1039.04 662.909,1043.81 664.509,1048.57 666.168,1053.32 
  667.886,1058.07 669.662,1062.81 671.498,1067.55 673.392,1072.27 675.345,1076.99 677.357,1081.69 679.427,1086.38 681.556,1091.07 683.743,1095.73 685.989,1100.39 
  688.294,1105.03 690.656,1109.66 693.077,1114.27 695.556,1118.86 698.093,1123.44 700.688,1128 703.341,1132.54 706.051,1137.07 708.819,1141.57 711.643,1146.05 
  714.525,1150.51 717.464,1154.95 720.46,1159.37 723.512,1163.76 726.621,1168.13 729.785,1172.47 733.006,1176.79 736.282,1181.08 739.613,1185.35 743,1189.58 
  746.441,1193.79 749.937,1197.97 753.488,1202.12 757.092,1206.24 760.751,1210.33 764.462,1214.38 768.227,1218.4 772.044,1222.39 775.914,1226.35 779.836,1230.27 
  783.81,1234.16 787.836,1238 791.912,1241.82 796.039,1245.59 800.216,1249.33 804.443,1253.03 808.72,1256.69 813.046,1260.31 817.42,1263.89 821.843,1267.43 
  826.313,1270.92 830.831,1274.38 835.396,1277.79 840.007,1281.16 844.664,1284.48 849.367,1287.76 854.115,1290.99 858.907,1294.18 863.743,1297.32 868.623,1300.41 
  873.546,1303.45 878.512,1306.45 883.52,1309.4 888.569,1312.3 893.659,1315.15 898.789,1317.94 903.959,1320.69 909.169,1323.39 914.417,1326.03 919.703,1328.62 
  925.027,1331.16 930.388,1333.64 935.785,1336.07 941.218,1338.45 946.686,1340.77 952.189,1343.03 957.726,1345.24 963.296,1347.39 968.899,1349.48 974.534,1351.52 
  980.2,1353.5 985.897,1355.42 991.624,1357.28 997.381,1359.09 1003.17,1360.83 1008.98,1362.52 1014.82,1364.14 1020.69,1365.7 1026.58,1367.2 1032.5,1368.64 
  1038.45,1370.02 1044.41,1371.34 1050.4,1372.59 1056.42,1373.78 1062.45,1374.91 1068.51,1375.98 1074.59,1376.98 1080.68,1377.91 1086.8,1378.78 1092.93,1379.59 
  1099.09,1380.34 1105.26,1381.01 1111.44,1381.62 1117.64,1382.17 1123.85,1382.65 1130.08,1383.07 1136.32,1383.41 1142.58,1383.69 1148.84,1383.91 1155.12,1384.06 
  1161.4,1384.14 1167.7,1384.15 1174,1384.09 1180.31,1383.97 1186.63,1383.78 1192.95,1383.52 1199.28,1383.2 1205.62,1382.8 1211.95,1382.34 1218.29,1381.81 
  1224.63,1381.21 1230.98,1380.54 1237.32,1379.81 1243.67,1379 1250.01,1378.13 1256.35,1377.18 1262.69,1376.17 1269.02,1375.09 1275.36,1373.94 1281.68,1372.72 
  1288,1371.44 1294.31,1370.08 1300.62,1368.65 1306.92,1367.16 1313.21,1365.6 1319.49,1363.97 1325.75,1362.27 1332.01,1360.5 1338.26,1358.66 1344.49,1356.76 
  1350.71,1354.78 1356.91,1352.74 1363.1,1350.63 1369.27,1348.45 1375.42,1346.21 1381.56,1343.9 1387.68,1341.52 1393.78,1339.07 1399.86,1336.55 1405.91,1333.97 
  1411.95,1331.32 1417.96,1328.61 1423.96,1325.83 1429.92,1322.98 1435.86,1320.07 1441.78,1317.09 1447.67,1314.04 1453.53,1310.93 1459.37,1307.76 1465.17,1304.52 
  1470.95,1301.22 1476.7,1297.85 1482.41,1294.42 1488.1,1290.93 1493.75,1287.37 1499.37,1283.75 1504.95,1280.07 1510.5,1276.32 1516.02,1272.52 1521.5,1268.65 
  1526.94,1264.73 1532.35,1260.74 1537.71,1256.69 1543.04,1252.58 1548.33,1248.42 1553.58,1244.19 1558.78,1239.91 1563.95,1235.57 1569.07,1231.17 1574.15,1226.71 
  1579.19,1222.2 1584.18,1217.63 1589.13,1213 1594.03,1208.33 1598.89,1203.59 1603.7,1198.8 1608.46,1193.96 1613.17,1189.07 1617.83,1184.12 1622.45,1179.12 
  1627.01,1174.07 1631.53,1168.97 1635.99,1163.81 1640.4,1158.61 1644.76,1153.36 1649.06,1148.06 1653.31,1142.71 1657.51,1137.32 1661.65,1131.87 1665.74,1126.39 
  1669.77,1120.85 1673.75,1115.27 1677.67,1109.65 1681.53,1103.98 1685.33,1098.27 1689.08,1092.52 1692.76,1086.72 1696.39,1080.89 1699.96,1075.01 1703.46,1069.09 
  1706.91,1063.14 1710.3,1057.14 1713.62,1051.11 1716.88,1045.04 1720.08,1038.94 1723.21,1032.8 1726.28,1026.62 1729.29,1020.41 1732.23,1014.16 1735.11,1007.89 
  1737.93,1001.58 1740.67,995.238 1743.36,988.867 1745.97,982.466 1748.52,976.036 1751.01,969.577 1753.42,963.091 1755.77,956.578 1758.05,950.038 1760.26,943.474 
  1762.41,936.884 1764.48,930.271 1766.49,923.635 1768.42,916.976 1770.29,910.296 1772.09,903.595 1773.82,896.875 1775.48,890.135 1777.06,883.376 1778.58,876.601 
  1780.02,869.808 1781.4,863 1782.7,856.176 1783.93,849.338 1785.09,842.486 1786.18,835.622 1787.2,828.746 1788.14,821.859 1789.01,814.961 1789.81,808.054 
  1790.54,801.139 1791.2,794.215 1791.78,787.285 1792.29,780.348 1792.73,773.406 1793.09,766.46 1793.38,759.509 1793.6,752.556 1793.75,745.601 1793.82,738.644 
  1793.82,731.688 1793.75,724.731 1793.6,717.776 1793.38,710.823 1793.09,703.872 1792.73,696.926 1792.29,689.984 1791.78,683.047 1791.2,676.117 1790.54,669.193 
  1789.81,662.278 1789.01,655.371 1788.14,648.473 1787.2,641.586 1786.18,634.71 1785.09,627.846 1783.93,620.994 1782.7,614.156 1781.4,607.332 1780.02,600.524 
  1778.58,593.731 1777.06,586.956 1775.48,580.197 1773.82,573.457 1772.09,566.737 1770.29,560.036 1768.42,553.356 1766.49,546.697 1764.48,540.061 1762.41,533.448 
  1760.26,526.858 1758.05,520.294 1755.77,513.754 1753.42,507.241 1751.01,500.755 1748.52,494.296 1745.97,487.866 1743.36,481.465 1740.67,475.094 1737.93,468.753 
  1735.11,462.444 1732.23,456.167 1729.29,449.923 1726.28,443.713 1723.21,437.536 1720.08,431.395 1716.88,425.29 1713.62,419.221 1710.3,413.189 1706.91,407.195 
  1703.46,401.239 1699.96,395.322 1696.39,389.446 1692.76,383.61 1689.08,377.815 1685.33,372.061 1681.53,366.351 1677.67,360.683 1673.75,355.06 1669.77,349.48 
  1665.74,343.946 1661.65,338.457 1657.51,333.015 1653.31,327.62 1649.06,322.272 1644.76,316.972 1640.4,311.72 1635.99,306.518 1631.53,301.366 1627.01,296.264 
  1622.45,291.213 1617.83,286.213 1613.17,281.266 1608.46,276.371 1603.7,271.529 1598.89,266.741 1594.03,262.007 1589.13,257.327 1584.18,252.703 1579.19,248.134 
  1574.15,243.621 1569.07,239.165 1563.95,234.766 1558.78,230.424 1553.58,226.141 1548.33,221.915 1543.04,217.749 1537.71,213.641 1532.35,209.593 1526.94,205.606 
  1521.5,201.679 1516.02,197.812 1510.5,194.007 1504.95,190.263 1499.37,186.582 1493.75,182.962 1488.1,179.406 1482.41,175.912 1476.7,172.481 1470.95,169.115 
  1465.17,165.812 1459.37,162.573 1453.53,159.399 1447.67,156.29 1441.78,153.246 1435.86,150.267 1429.92,147.353 1423.96,144.506 1417.96,141.725 1411.95,139.01 
  1405.91,136.361 1399.86,133.779 1393.78,131.264 1387.68,128.817 1381.56,126.436 1375.42,124.123 1369.27,121.878 1363.1,119.7 1356.91,117.591 1350.71,115.549 
  1344.49,113.575 1338.26,111.67 1332.01,109.833 1325.75,108.065 1319.49,106.365 1313.21,104.734 1306.92,103.172 1300.62,101.678 1294.31,100.253 1288,98.8968 
  1281.68,97.6095 1275.36,96.3911 1269.02,95.2416 1262.69,94.1609 1256.35,93.1491 1250.01,92.2061 1243.67,91.3319 1237.32,90.5265 1230.98,89.7898 1224.63,89.1217 
  1218.29,88.5222 1211.95,87.9912 1205.62,87.5286 1199.28,87.1342 1192.95,86.8081 1186.63,86.5501 1180.31,86.36 1174,86.2377 1167.7,86.1831 1161.4,86.196 
  1155.12,86.2762 1148.84,86.4236 1142.58,86.638 1136.32,86.9191 1130.08,87.2669 1123.85,87.6811 1117.64,88.1614 1111.44,88.7076 1105.26,89.3196 1099.09,89.9969 
  1092.93,90.7395 1086.8,91.547 1080.68,92.4192 1074.59,93.3557 1068.51,94.3563 1062.45,95.4207 1056.42,96.5485 1050.4,97.7395 1044.41,98.9934 1038.45,100.31 
  1032.5,101.688 1026.58,103.128 1020.69,104.63 1014.82,106.193 1008.98,107.817 1003.17,109.5 997.381,111.244 991.624,113.047 985.897,114.91 980.2,116.831 
  974.534,118.81 968.899,120.848 963.296,122.942 957.726,125.094 952.189,127.302 946.686,129.566 941.218,131.886 935.785,134.261 930.388,136.691 925.027,139.174 
  919.703,141.712 914.417,144.302 909.169,146.945 903.959,149.641 898.789,152.388 893.659,155.186 888.569,158.034 883.52,160.933 878.512,163.881 873.546,166.877 
  868.623,169.923 863.743,173.015 858.907,176.156 854.115,179.342 849.367,182.575 844.664,185.853 840.007,189.176 835.396,192.544 830.831,195.955 826.313,199.409 
  821.843,202.905 817.42,206.443 813.046,210.022 808.72,213.642 804.443,217.302 800.216,221.001 796.039,224.739 791.912,228.514 787.836,232.327 783.81,236.177 
  779.836,240.062 775.914,243.983 772.044,247.939 768.227,251.928 764.462,255.951 760.751,260.006 757.092,264.094 753.488,268.212 749.937,272.362 746.441,276.541 
  743,280.749 739.613,284.985 736.282,289.25 733.006,293.541 729.785,297.859 726.621,302.203 723.512,306.571 720.46,310.964 717.464,315.38 714.525,319.819 
  711.643,324.28 708.819,328.762 706.051,333.265 703.341,337.788 700.688,342.33 698.093,346.89 695.556,351.468 693.077,356.063 690.656,360.674 688.294,365.301 
  685.989,369.943 683.743,374.598 681.556,379.267 679.427,383.948 677.357,388.642 675.345,393.346 673.392,398.061 671.498,402.785 669.662,407.518 667.886,412.26 
  666.168,417.008 664.509,421.764 662.909,426.525 661.367,431.292 659.884,436.063 658.46,440.838 657.095,445.616 655.788,450.396 654.54,455.178 653.35,459.961 
  652.218,464.744 651.145,469.526 650.13,474.307 649.173,479.086 648.274,483.862 647.432,488.634 646.649,493.403 645.923,498.166 645.254,502.924 644.642,507.676 
  644.088,512.421 643.59,517.158 643.149,521.886 642.764,526.606 642.435,531.316 642.163,536.015 641.946,540.703 641.785,545.38 641.679,550.043 641.629,554.694 
  641.633,559.331 641.691,563.953 641.804,568.561 641.971,573.152 642.192,577.727 642.466,582.285 642.793,586.825 643.173,591.346 643.605,595.849 644.089,600.332 
  644.625,604.794 645.213,609.236 645.851,613.656 646.541,618.054 647.28,622.429 648.07,626.781 648.909,631.109 649.798,635.412 650.735,639.691 651.721,643.943 
  652.754,648.17 653.835,652.369 654.963,656.541 656.138,660.686 657.36,664.801 658.627,668.888 659.939,672.945 661.296,676.972 662.698,680.968 664.144,684.933 
  665.633,688.867 667.165,692.768 668.74,696.637 670.356,700.472 672.015,704.274 673.714,708.042 675.454,711.775 677.233,715.473 679.052,719.136 680.91,722.762 
  682.807,726.353 684.741,729.906 686.712,733.422 688.721,736.9 690.765,740.341 692.845,743.743 694.96,747.106 697.11,750.429 699.294,753.713 701.51,756.957 
  703.76,760.161 706.042,763.323 708.355,766.445 710.699,769.525 713.074,772.563 715.478,775.56 717.912,778.513 720.374,781.424 722.864,784.292 725.382,787.117 
  727.926,789.898 730.496,792.635 733.092,795.328 735.712,797.976 738.357,800.58 741.025,803.138 743.716,805.652 746.429,808.12 749.164,810.543 751.92,812.919 
  754.696,815.25 757.492,817.534 760.307,819.772 763.14,821.964 765.991,824.108 768.859,826.206 771.743,828.257 774.644,830.26 777.559,832.216 780.488,834.125 
  783.432,835.986 786.388,837.799 789.357,839.565 792.337,841.282 795.329,842.952 798.331,844.574 801.342,846.148 804.363,847.673 807.392,849.15 810.429,850.58 
  813.473,851.96 816.523,853.293 819.579,854.577 822.641,855.814 825.706,857.001 828.775,858.141 831.847,859.232 834.922,860.276 837.998,861.271 841.075,862.218 
  844.153,863.117 847.23,863.968 850.307,864.771 853.382,865.527 856.454,866.234 859.524,866.894 862.59,867.507 865.652,868.073 868.709,868.591 871.76,869.062 
  874.806,869.486 877.844,869.863 880.875,870.194 883.898,870.478 886.912,870.716 889.917,870.908 892.912,871.055 895.896,871.155 898.87,871.21 901.831,871.22 
  904.779,871.185 907.715,871.105 910.637,870.98 913.545,870.812 916.438,870.599 919.315,870.343 922.176,870.043 925.021,869.7 927.848,869.314 930.657,868.885 
  933.448,868.415 936.22,867.902 938.972,867.348 941.704,866.752 944.416,866.116 947.106,865.439 949.775,864.721 952.421,863.964 955.044,863.167 957.644,862.331 
  960.22,861.457 962.771,860.544 965.297,859.593 967.798,858.604 970.273,857.578 972.721,856.516 975.143,855.417 977.536,854.282 979.902,853.112 982.24,851.906 
  984.548,850.666 986.827,849.392 989.076,848.085 991.295,846.744 993.483,845.37 995.64,843.964 997.765,842.526 999.858,841.057 1001.92,839.557 1003.95,838.027 
  1005.94,836.467 1007.9,834.877 1009.83,833.259 1011.72,831.613 1013.58,829.939 1015.4,828.237 1017.19,826.509 1018.94,824.755 1020.65,822.976 1022.33,821.171 
  1023.97,819.341 1025.57,817.488 1027.14,815.611 1028.67,813.712 1030.16,811.79 1031.61,809.847 1033.02,807.882 1034.39,805.897 1035.72,803.892 1037.02,801.868 
  1038.27,799.825 1039.49,797.764 1040.66,795.685 1041.79,793.589 1042.88,791.477 1043.94,789.349 1044.95,787.206 1045.91,785.049 1046.84,782.877 1047.72,780.692 
  1048.57,778.495 1049.37,776.285 1050.13,774.064 1050.84,771.832 1051.51,769.59 1052.14,767.338 1052.73,765.078 1053.28,762.809 1053.78,760.532 1054.23,758.249 
  1054.65,755.959 1055.02,753.663 1055.35,751.362 1055.63,749.057 1055.87,746.747 1056.07,744.435 1056.22,742.12 1056.33,739.803 1056.4,737.485 1056.42,735.166 
  
  "/>
<polyline clip-path="url(#clip132)" style="stroke:#009af9; stroke-width:4; stroke-opacity:1; fill:none" points="
  1038.81,769.561 1056.42,735.166 1073.37,769.887 
  "/>
<polyline clip-path="url(#clip132)" style="stroke:#009af9; stroke-width:4; stroke-opacity:1; fill:none" points="
  1056.42,735.166 1056.4,737.485 
  "/>
</svg>
